<svg width="73" height="15" viewBox="0 0 73 15" fill="none" xmlns="http://www.w3.org/2000/svg"><path fill-rule="evenodd" clip-rule="evenodd" d="M42.122 8.233h-1.401a.266.266 0 01-.25-.265V.597a.267.267 0 01.27-.242h1.305c.119.004.22.088.25.206v1.127h.026C42.716.681 43.267.2 44.238.2c.63 0 1.244.233 1.641.868.368.59.368 1.583.368 2.296V8a.27.27 0 01-.27.232h-1.414a.265.265 0 01-.25-.232V4l.002-.192v-.002c.007-.788.015-1.791-.881-1.791a.925.925 0 00-.814.59c-.197.45-.223.9-.223 1.398v3.966a.271.271 0 01-.274.265zM36.186.21c2.087 0 3.215 1.83 3.215 4.156 0 2.249-1.244 4.032-3.215 4.032-2.048 0-3.163-1.83-3.163-4.109S34.152.21 36.186.21zm.013 1.505c-1.036 0-1.102 1.441-1.102 2.341v.03c0 .912 0 2.792 1.089 2.792 1.101 0 1.142-1.55 1.142-2.496 0-.62-.026-1.365-.21-1.954-.158-.508-.473-.713-.919-.713zM10.204 8.248H8.8a.266.266 0 01-.249-.243V.634A.269.269 0 018.82.37h1.31a.267.267 0 01.248.255v.962h.027c.34-.932.984-1.365 1.85-1.365.866 0 1.43.433 1.825 1.365a2.086 2.086 0 011.626-1.35 2.055 2.055 0 011.95.784c.382.53.37 1.27.358 1.964-.002.118-.004.233-.004.347v4.65a.273.273 0 01-.082.19.262.262 0 01-.19.076h-1.404a.266.266 0 01-.25-.264V4.077l.003-.222c.004-.367.011-.92-.042-1.159-.105-.495-.42-.635-.826-.635a.935.935 0 00-.84.604c-.134.346-.133.905-.133 1.319v3.998a.274.274 0 01-.08.19.263.263 0 01-.19.076h-1.408a.267.267 0 01-.25-.264V4.077l.003-.25c.011-.797.025-1.784-.873-1.784-.973 0-.972 1.123-.971 1.972v3.967a.273.273 0 01-.082.19.263.263 0 01-.19.076zm-4.183.09c.107.062.24.048.333-.034l.01.002c.28-.255.791-.708 1.079-.953.11-.095.09-.254 0-.381a10.99 10.99 0 00-.083-.114c-.23-.315-.449-.615-.449-1.217V3.19c.005-.863.01-1.653-.622-2.256C5.75.404 4.858.219 4.173.219 2.835.22 1.342.73 1.03 2.417a.258.258 0 00.042.195c.04.057.1.095.168.105l1.351.15a.298.298 0 00.249-.263c.117-.581.595-.862 1.131-.862.292 0 .618.108.79.372.176.266.173.618.17.934v.294c-.128.015-.261.029-.4.043-.742.077-1.6.167-2.244.455-.87.39-1.493 1.18-1.493 2.346 0 1.492.92 2.239 2.105 2.239.999 0 1.545-.24 2.318-1.044l.103.155c.184.28.304.464.702.802zM4.936 4.873v-.378c-1.017 0-2.09.222-2.09 1.445 0 .623.314 1.042.853 1.042.396 0 .75-.249.974-.653.264-.479.264-.927.263-1.456zM25.87 6.967l-.082-.114c-.23-.315-.449-.615-.449-1.216V3.171c.006-.858.01-1.642-.622-2.243C24.176.4 23.283.214 22.6.214c-1.338 0-2.831.508-3.145 2.198a.258.258 0 00.042.197c.04.057.1.094.168.104l1.363.15a.3.3 0 00.25-.265c.117-.58.593-.861 1.13-.861.29 0 .621.109.788.373.178.265.175.617.172.934v.289l-.391.042c-.745.077-1.608.166-2.253.455-.88.389-1.5 1.18-1.5 2.347 0 1.491.922 2.237 2.105 2.237.996 0 1.546-.24 2.318-1.043l.1.152c.188.285.306.465.706.805.107.06.24.048.332-.033.28-.254.79-.708 1.078-.953.121-.088.101-.243.006-.375zm-2.762-.645c-.223.403-.58.652-.974.652-.539 0-.853-.42-.853-1.04 0-1.225 1.074-1.446 2.09-1.446v.367c0 .536.001.986-.263 1.467zm3.952-4.664V.608a.257.257 0 01.074-.192.246.246 0 01.189-.074h4.62a.255.255 0 01.19.075c.05.05.078.12.077.191v.904c0 .151-.124.35-.347.662l-2.394 3.49c.888-.022 1.828.114 2.635.578.15.081.245.238.25.41v1.13c0 .154-.166.334-.342.24a5.224 5.224 0 00-4.882.01c-.16.087-.329-.09-.329-.244V6.714a1.292 1.292 0 01.172-.723l2.774-4.067h-2.42a.255.255 0 01-.189-.075.266.266 0 01-.078-.191zm24.425-.379a4.141 4.141 0 011.193-.752 3.439 3.439 0 011.297-.254 2.97 2.97 0 011.283.264c.38.178.714.447.972.783.281.373.49.797.613 1.25a5.95 5.95 0 01.214 1.653c.006.57-.07 1.138-.23 1.685-.132.464-.35.898-.64 1.28a2.9 2.9 0 01-1.004.821c-.41.194-.858.29-1.31.28a3.249 3.249 0 01-2.284-.889v3.528a.27.27 0 01-.073.227.257.257 0 01-.222.075h-.87a.257.257 0 01-.223-.075.27.27 0 01-.073-.226V.797a.27.27 0 01.074-.226.258.258 0 01.221-.076h.649a.307.307 0 01.232.077.32.32 0 01.107.225l.074.481zm2.078.196a3.247 3.247 0 00-1.975.693v4.194c.629.483 1.277.724 1.945.723 1.356 0 2.034-.932 2.034-2.796 0-1.864-.668-2.803-2.004-2.815zm5.334.371l.111-.038a7.447 7.447 0 012.163-.343c.59 0 1.003.111 1.238.331.236.22.354.602.354 1.144v.99a7.81 7.81 0 00-1.857-.255c-.865-.001-1.552.217-2.063.654-.512.438-.767 1.022-.767 1.754.002.682.209 1.227.622 1.634.413.406.973.61 1.68.61.437-.002.87-.089 1.276-.255.428-.17.824-.414 1.171-.721l.075.496a.3.3 0 00.101.214c.062.054.142.08.222.072h.635a.258.258 0 00.22-.075.27.27 0 00.075-.226V2.69c0-.824-.222-1.43-.665-1.821-.442-.391-1.13-.586-2.063-.586-.465 0-.928.042-1.385.127-.4.065-.79.176-1.164.332A.552.552 0 0058.64.9a.518.518 0 00-.06.294v.403c0 .182.067.272.192.272a.382.382 0 00.124-.023zm2.853 5.159c-.326.124-.67.19-1.017.194-.383.001-.678-.101-.885-.307-.206-.206-.31-.5-.31-.881 0-.874.555-1.31 1.667-1.31.263 0 .526.018.787.053.26.034.52.081.775.142v1.537a3.834 3.834 0 01-1.017.572zm6.277 3.953c.349-.302.656-.799.922-1.491l3.244-8.43c.053-.113.088-.236.103-.361 0-.12-.068-.18-.207-.18h-.825a.524.524 0 00-.325.074.817.817 0 00-.175.332l-1.991 5.84-2.065-5.84a.815.815 0 00-.175-.332.524.524 0 00-.325-.075h-.885c-.137 0-.206.061-.206.18.015.126.05.249.103.363l2.84 7.17-.28.762c-.167.482-.354.813-.56.994a1.28 1.28 0 01-.872.27 2.04 2.04 0 01-.397-.03 1.312 1.312 0 00-.221-.03c-.148 0-.222.096-.222.287v.391a.517.517 0 00.074.308.428.428 0 00.236.143c.274.074.557.11.84.106.565 0 1.02-.15 1.37-.451z" fill="#232F3E"/><path fill-rule="evenodd" clip-rule="evenodd" d="M29.37 12.935c.32-.812 1.032-2.632.693-3.073h.003c-.337-.442-2.229-.21-3.08-.106h-.002c-.259.032-.298-.198-.066-.364 1.511-1.084 3.987-.774 4.274-.408.288.366-.078 2.9-1.493 4.11-.218.186-.426.087-.329-.159zm-10.167 1.253c3.29 0 7.123-1.061 9.763-3.05v.004c.436-.336.062-.829-.384-.636a23.33 23.33 0 01-9.101 1.907c-4.339 0-8.535-1.215-11.93-3.232-.298-.177-.52.134-.27.362a17.452 17.452 0 0011.922 4.645z" fill="#F90"/></svg>