<svg width="54" height="23" viewBox="0 0 54 23" fill="none" xmlns="http://www.w3.org/2000/svg"><path fill-rule="evenodd" clip-rule="evenodd" d="M10.457 3.644c-.61.731-1.588 1.309-2.566 1.226-.122-.99.356-2.04.916-2.69.611-.753 1.68-1.289 2.546-1.33.102 1.03-.295 2.041-.896 2.794zm.886 1.422c-.861-.05-1.647.262-2.282.515-.408.162-.754.3-1.017.3-.296 0-.656-.145-1.06-.308-.53-.213-1.136-.457-1.771-.445-1.456.02-2.81.856-3.554 2.185-1.528 2.66-.397 6.598 1.08 8.762.722 1.072 1.588 2.247 2.728 2.206.502-.02.863-.174 1.237-.335.43-.184.876-.376 1.574-.376.673 0 1.1.187 1.51.366.39.17.765.334 1.32.325 1.182-.021 1.925-1.073 2.649-2.145a9.477 9.477 0 001.175-2.444l.006-.02a.237.237 0 00-.028-.013c-.261-.12-2.255-1.045-2.274-3.522-.019-2.08 1.582-3.133 1.834-3.299l.03-.02c-1.018-1.526-2.607-1.69-3.157-1.732zm8.177 13.08V2.077h5.957c3.076 0 5.224 2.145 5.224 5.278 0 3.134-2.19 5.299-5.305 5.299h-3.412v5.494H19.52zM21.985 4.18h2.84c2.14 0 3.361 1.154 3.361 3.185 0 2.03-1.222 3.195-3.37 3.195h-2.831V4.18zm16.853 12.04c-.652 1.257-2.088 2.05-3.636 2.05-2.29 0-3.89-1.38-3.89-3.463 0-2.061 1.548-3.247 4.41-3.422l3.075-.186v-.886c0-1.31-.845-2.02-2.352-2.02-1.243 0-2.149.649-2.332 1.639h-2.22c.071-2.083 2.006-3.598 4.623-3.598 2.82 0 4.654 1.495 4.654 3.814v7.999h-2.281v-1.928h-.051zm-2.974.144c-1.313 0-2.148-.64-2.148-1.619 0-1.01.804-1.597 2.342-1.69l2.739-.175v.907c0 1.505-1.263 2.577-2.933 2.577zm12.872 2.412c-.988 2.814-2.118 3.742-4.522 3.742-.183 0-.794-.021-.936-.062v-1.928c.152.02.53.041.723.041 1.09 0 1.7-.463 2.077-1.67l.224-.71-4.175-11.7h2.576l2.902 9.493h.051L50.56 6.49h2.505l-4.328 12.287z" fill="#000"/></svg>