<svg width="70" height="22" viewBox="0 0 70 22" fill="none" xmlns="http://www.w3.org/2000/svg"><path fill-rule="evenodd" clip-rule="evenodd" d="M21.481 4.453c.588 0 1.096.105 1.522.31.429.209.783.49 1.067.842.28.354.488.768.623 1.242.133.476.2.988.2 1.536a6.13 6.13 0 01-.467 2.385c-.312.75-.736 1.4-1.275 1.955a5.99 5.99 0 01-1.908 1.315 5.839 5.839 0 01-2.384.484c-.11 0-.305-.002-.58-.009a8.4 8.4 0 01-.943-.081c-.355-.05-.731-.122-1.129-.22a5.687 5.687 0 01-1.129-.402L18.252.525l2.843-.44L19.96 4.8a4.41 4.41 0 01.733-.255c.246-.06.508-.092.79-.092zm-2.384 7.823c.428 0 .831-.104 1.21-.31.38-.206.708-.485.983-.832.274-.348.492-.74.65-1.179a4 4 0 00.24-1.371c0-.585-.098-1.041-.294-1.37-.196-.33-.557-.494-1.083-.494-.172 0-.394.033-.669.09a1.684 1.684 0 00-.744.386l-1.21 5.007a5 5 0 01.192.036 1.957 1.957 0 00.394.038h.33zm8.746 1.991h-2.716l2.293-9.611h2.734l-2.311 9.611zm1.32-10.782c-.379 0-.722-.112-1.027-.337-.308-.224-.46-.569-.46-1.033 0-.256.052-.496.156-.721a1.92 1.92 0 011.01-.98c.226-.096.468-.144.725-.144.379 0 .72.112 1.026.337.305.226.459.571.459 1.033 0 .256-.052.497-.156.723a1.912 1.912 0 01-1.008.977 1.795 1.795 0 01-.724.145zm3.371-1.223l2.844-.44-.699 2.834h3.046l-.55 2.228h-3.028l-.806 3.363a3.79 3.79 0 00-.128.785c-.013.244.017.454.09.63a.797.797 0 00.395.41c.19.099.461.148.816.148.293 0 .578-.028.854-.083.274-.054.553-.13.834-.229l.203 2.085c-.367.134-.765.25-1.193.346a6.913 6.913 0 01-1.523.146c-.844 0-1.498-.124-1.964-.373-.465-.25-.794-.592-.99-1.025-.195-.43-.282-.928-.257-1.488a9.62 9.62 0 01.256-1.773l1.8-7.564zm5.071 8.168c0-.828.135-1.608.404-2.34a5.746 5.746 0 011.157-1.92 5.41 5.41 0 011.826-1.296c.714-.316 1.512-.476 2.393-.476.55 0 1.043.052 1.477.156.434.105.828.24 1.184.41l-.937 2.122a8.973 8.973 0 00-.76-.265 3.332 3.332 0 00-.963-.12c-.907 0-1.623.312-2.157.932-.53.62-.798 1.456-.798 2.504 0 .622.134 1.123.404 1.508.269.384.765.575 1.486.575a5.044 5.044 0 001.909-.383l.202 2.174a9.705 9.705 0 01-1.138.358 6.34 6.34 0 01-1.486.153c-.759 0-1.401-.11-1.926-.328a3.672 3.672 0 01-1.302-.887A3.338 3.338 0 0137.836 12a5.311 5.311 0 01-.23-1.57zm12.063 4.093c-.649 0-1.211-.098-1.689-.292a3.122 3.122 0 01-1.182-.822 3.55 3.55 0 01-.706-1.252 5.027 5.027 0 01-.238-1.597c0-.732.119-1.464.357-2.195a6.201 6.201 0 011.056-1.972 5.63 5.63 0 011.705-1.437c.671-.37 1.444-.556 2.311-.556.636 0 1.197.098 1.68.293.482.194.879.47 1.193.822.31.354.546.77.705 1.252.16.48.238 1.014.238 1.598 0 .73-.116 1.462-.347 2.195a6.328 6.328 0 01-1.028 1.972 5.383 5.383 0 01-1.697 1.434c-.679.371-1.466.557-2.358.557zm1.357-7.82a1.72 1.72 0 00-1.064.346 2.987 2.987 0 00-.77.877 4.32 4.32 0 00-.469 1.16 5 5 0 00-.155 1.197c0 .61.099 1.085.293 1.427.197.34.55.51 1.065.51a1.71 1.71 0 001.064-.347 3 3 0 00.77-.877c.208-.351.365-.74.47-1.16.102-.42.154-.82.154-1.196 0-.609-.098-1.084-.294-1.426-.195-.34-.55-.511-1.064-.511zm7.031 7.564H55.34l2.293-9.611h2.736l-2.312 9.611zm1.32-10.782a1.69 1.69 0 01-1.027-.337c-.306-.224-.46-.569-.46-1.033 0-.256.053-.496.156-.721a1.92 1.92 0 011.01-.979c.225-.097.467-.145.724-.145.38 0 .722.112 1.028.337.305.226.46.571.46 1.033 0 .256-.055.497-.158.723a1.9 1.9 0 01-1.007.977 1.805 1.805 0 01-.726.145zm2.947 1.609c.206-.06.436-.132.687-.211A10.418 10.418 0 0164.9 4.5c.385-.043.824-.065 1.312-.065 1.431 0 2.419.416 2.964 1.244.544.829.639 1.962.285 3.399l-1.249 5.19H65.48l1.21-5.081c.074-.317.132-.624.175-.924a2.18 2.18 0 00-.01-.785.937.937 0 00-.338-.548c-.179-.14-.45-.21-.817-.21-.354 0-.714.038-1.082.11l-1.78 7.437h-2.735l2.22-9.173zM29.514 19.996l-.532.964h-.577a43.803 43.803 0 012.333-3.753h.516c.054.27.104.544.15.82a43.782 43.782 0 01.258 1.834c.04.34.081.705.125 1.099h-.533a20.938 20.938 0 01-.049-.49c-.014-.164-.03-.322-.049-.474h-1.642zm1.593-.423a27.59 27.59 0 00-.233-1.766 26.005 26.005 0 00-1.114 1.765h1.347zm2.607 1.467c-.236 0-.443-.034-.622-.103a1.194 1.194 0 01-.449-.292 1.214 1.214 0 01-.27-.458 1.916 1.916 0 01-.089-.603c0-.325.052-.636.155-.932.103-.295.25-.557.44-.785.19-.227.42-.409.688-.544a1.96 1.96 0 01.897-.203c.283 0 .509.028.677.086.169.058.29.112.362.163l-.218.433a1.563 1.563 0 00-.848-.227 1.3 1.3 0 00-.674.176 1.69 1.69 0 00-.506.455 2.092 2.092 0 00-.315.628 2.314 2.314 0 00-.109.69c0 .704.306 1.056.92 1.056.13 0 .246-.009.35-.027a2.43 2.43 0 00.274-.062c.08-.024.15-.05.212-.079l.163-.076.066.455a1.982 1.982 0 01-.419.163 2.634 2.634 0 01-.685.086zm3.054 0c-.236 0-.443-.034-.623-.103a1.194 1.194 0 01-.448-.292 1.214 1.214 0 01-.27-.458c-.06-.178-.09-.38-.09-.603 0-.325.052-.636.156-.932.103-.295.25-.557.44-.785.19-.227.42-.409.688-.544a1.96 1.96 0 01.897-.203c.283 0 .508.028.677.086.168.058.289.112.361.163l-.217.433a1.563 1.563 0 00-.848-.227 1.3 1.3 0 00-.674.176 1.69 1.69 0 00-.506.455 2.092 2.092 0 00-.315.628 2.314 2.314 0 00-.109.69c0 .704.306 1.056.919 1.056.13 0 .247-.009.35-.027a2.43 2.43 0 00.275-.062c.08-.024.15-.05.212-.079l.163-.076.065.455c-.043.026-.1.053-.17.081a2.12 2.12 0 01-.248.082 2.634 2.634 0 01-.685.086zm1.459-.08l.903-3.754h2.224l-.104.439h-1.7l-.272 1.132h1.511l-.103.427H39.18l-.32 1.316h1.826l-.103.44h-2.355zm4.701-3.791c.438 0 .769.082.992.249.223.166.334.408.334.725 0 .246-.046.458-.138.636a1.188 1.188 0 01-.395.442c-.17.116-.375.201-.614.257-.24.056-.505.084-.8.084h-.374l-.337 1.398h-.528l.892-3.704c.152-.037.313-.06.484-.07.17-.012.331-.017.484-.017zm-.066.443c-.257 0-.413.008-.467.022l-.359 1.49h.343c.152 0 .308-.014.467-.041.16-.027.303-.075.43-.143a.871.871 0 00.312-.285.821.821 0 00.123-.468c0-.206-.076-.353-.229-.442-.152-.088-.359-.133-.62-.133zm4.608-.406l-.103.439h-1.136l-.8 3.314h-.526l.799-3.314h-1.137l.104-.439h2.8zm-.489 3.754l.903-3.754h2.224l-.104.439h-1.701l-.272 1.132h1.511l-.103.427h-1.506l-.32 1.316h1.826l-.103.44H46.98zm4.692-3.791c.558 0 .975.13 1.25.392.276.262.414.615.414 1.059 0 .31-.05.609-.147.895-.098.288-.25.541-.457.762a2.2 2.2 0 01-.79.525c-.322.13-.705.195-1.15.195-.153 0-.318-.007-.495-.022a2.63 2.63 0 01-.468-.075l.875-3.645c.153-.036.314-.06.484-.07.17-.011.332-.016.484-.016zm-.043.443c-.272 0-.435.008-.49.022l-.696 2.892c.03.007.078.013.147.019.07.005.181.008.337.008.287 0 .545-.048.775-.143.23-.096.425-.23.584-.401.16-.172.283-.375.37-.612a2.23 2.23 0 00.13-.777c0-.318-.092-.565-.277-.742-.184-.177-.478-.266-.88-.266zm5.768 3.348h-.528l.419-1.745h-1.745l-.419 1.744h-.527l.902-3.753h.528l-.381 1.57h1.745l.381-1.57h.527l-.902 3.753zm.832 0l.902-3.754h2.224l-.104.439H59.55l-.272 1.132h1.512l-.104.427H59.18l-.32 1.316h1.826l-.104.44H58.23zm4.7-3.791c.402 0 .72.08.956.243.236.163.353.4.353.715 0 .317-.093.584-.28.799-.186.215-.448.369-.785.462.044.076.095.173.153.29a10.82 10.82 0 01.359.834c.057.154.108.302.152.447h-.539c-.05-.137-.103-.276-.157-.417-.054-.141-.11-.276-.166-.406a7.896 7.896 0 00-.324-.666 3.721 3.721 0 01-.282.01h-.419l-.353 1.479h-.528l.892-3.704c.153-.037.313-.06.484-.07a7.49 7.49 0 01.484-.016zm-.066.443a2.8 2.8 0 00-.468.022l-.342 1.42h.321c.149 0 .3-.012.457-.033a1.39 1.39 0 00.426-.128.835.835 0 00.315-.265.76.76 0 00.123-.452c0-.202-.077-.347-.23-.433-.155-.087-.356-.13-.602-.13zm1.416 3.348l.902-3.754h2.223l-.103.439H65.6l-.272 1.132h1.511l-.103.427H65.23l-.32 1.316h1.826l-.104.44h-2.353z" fill="#4D4D4D"/><path fill-rule="evenodd" clip-rule="evenodd" d="M7.487 14.522c4.002 0 7.246-3.231 7.246-7.217 0-3.987-3.244-7.218-7.246-7.218C3.485.087.241 3.318.241 7.305c0 3.986 3.244 7.217 7.246 7.217zm3.195-8.246c.144-.961-.59-1.477-1.594-1.822l.326-1.302-.795-.198L8.3 4.222a30.657 30.657 0 00-.637-.15l.32-1.275-.795-.198-.326 1.302c-.174-.04-.343-.078-.508-.12v-.004L5.26 3.505l-.212.846s.59.134.578.143c.322.08.38.292.37.46l-.37 1.483c.022.006.05.013.082.027l-.084-.021-.52 2.077c-.04.097-.14.244-.365.188.008.011-.578-.143-.578-.143l-.395.907 1.035.256c.192.048.381.099.567.146l-.33 1.316.795.198.326-1.302c.217.058.428.113.634.164l-.325 1.296.795.197.33-1.313c1.356.255 2.376.152 2.805-1.07.346-.984-.017-1.551-.731-1.921.52-.12.912-.46 1.016-1.163zM8.865 8.814c-.246.984-1.909.452-2.448.318l.437-1.743c.54.134 2.268.399 2.011 1.425zm.246-2.552c-.224.894-1.608.44-2.057.329l.396-1.582c.449.111 1.894.32 1.661 1.253z" fill="#F7931A"/></svg>