<svg width="1920" height="450" viewBox="0 0 1920 450" fill="none" xmlns="http://www.w3.org/2000/svg"><path stroke="#000" stroke-opacity=".1" d="M0 74.5h1920M0 149.5h1920M0 224.5h1920M0 299.5h1920M0 374.5h1920M975.5 0v450m-75-450v450m-75-450v450m-75-450v450m-75-450v450m-75-450v450m-75-450v450m-75-450v450m-75-450v450m-75-450v450m-75-450v450m-75-450v450M75.5 0v450M.5 0v450m1875-450v450m-75-450v450m-75-450v450m-75-450v450m-75-450v450m-75-450v450m-75-450v450m-75-450v450m-75-450v450m-75-450v450m-75-450v450m-75-450v450"/></svg>