<svg width="54" height="42" viewBox="0 0 54 42" fill="none" xmlns="http://www.w3.org/2000/svg"><path fill-rule="evenodd" clip-rule="evenodd" d="M15.775 36.791v4.284h-.937v-.52c-.297.386-.749.628-1.362.628-1.209 0-2.157-.94-2.157-2.249 0-1.308.948-2.25 2.157-2.25.613 0 1.064.243 1.362.629v-.52h.937zm-2.182.77c-.812 0-1.308.62-1.308 1.372 0 .753.496 1.371 1.308 1.371.775 0 1.299-.592 1.299-1.371 0-.78-.524-1.371-1.3-1.371zm33.862 1.372c0-.753.496-1.371 1.308-1.371.776 0 1.299.592 1.299 1.371 0 .78-.523 1.371-1.3 1.371-.81 0-1.307-.618-1.307-1.371zm3.492-3.861v6.002h-.939v-.52c-.297.386-.749.628-1.362.628-1.209 0-2.157-.94-2.157-2.249 0-1.308.948-2.25 2.157-2.25.613 0 1.065.243 1.362.629v-2.24h.938zm-23.535 2.446c.604 0 .992.376 1.091 1.039h-2.237c.1-.619.478-1.04 1.146-1.04zm-2.129 1.415c0-1.335.884-2.25 2.147-2.25 1.209 0 2.039.915 2.048 2.25 0 .125-.01.242-.019.358h-3.201c.135.771.685 1.05 1.29 1.05a2.07 2.07 0 001.254-.45l.459.691c-.523.44-1.118.6-1.767.6-1.291 0-2.211-.887-2.211-2.249zm13.467 0c0-.753.497-1.371 1.308-1.371.776 0 1.3.592 1.3 1.371 0 .78-.524 1.371-1.3 1.371-.811 0-1.308-.618-1.308-1.371zm3.49-2.142v4.284h-.937v-.52c-.298.386-.748.628-1.361.628-1.21 0-2.157-.94-2.157-2.249 0-1.308.948-2.25 2.157-2.25.613 0 1.063.243 1.361.629v-.52h.938zm-8.784 2.142c0 1.3.91 2.25 2.3 2.25.65 0 1.082-.145 1.55-.512l-.45-.752c-.351.25-.721.385-1.128.385-.748-.009-1.299-.546-1.299-1.371s.55-1.362 1.3-1.371c.406 0 .776.134 1.128.385l.45-.752c-.469-.368-.901-.511-1.55-.511-1.39 0-2.301.95-2.301 2.249zm10.95-1.621c.243-.377.596-.628 1.136-.628.19 0 .46.036.669.117l-.29.878a1.53 1.53 0 00-.586-.108c-.613 0-.92.394-.92 1.102v2.401h-.938v-4.282h.929v.52zm-23.994-.18c-.451-.295-1.073-.448-1.758-.448-1.093 0-1.796.52-1.796 1.371 0 .699.524 1.13 1.488 1.264l.443.062c.514.072.757.206.757.448 0 .332-.343.52-.983.52-.65 0-1.118-.206-1.434-.448l-.442.725c.514.377 1.163.556 1.866.556 1.246 0 1.967-.582 1.967-1.398 0-.753-.567-1.146-1.506-1.28l-.442-.064c-.406-.054-.73-.134-.73-.42 0-.315.306-.502.82-.502.55 0 1.083.206 1.344.367l.406-.753zm10.96.18c.243-.377.595-.628 1.136-.628.19 0 .46.036.668.117l-.289.878a1.53 1.53 0 00-.587-.108c-.613 0-.92.394-.92 1.102v2.401h-.937v-4.282h.93v.52zm-6.864-.52h-1.534v-1.3h-.947v1.3h-.875v.85h.875v1.954c0 .994.388 1.586 1.497 1.586.406 0 .875-.125 1.172-.331l-.27-.798c-.28.161-.586.242-.83.242-.469 0-.622-.287-.622-.717v-1.935h1.534v-.852zM10.49 38.386v2.688h-.948v-2.383c0-.726-.306-1.13-.946-1.13-.623 0-1.055.396-1.055 1.14v2.373h-.948v-2.383c0-.726-.315-1.13-.938-1.13-.64 0-1.056.396-1.056 1.14v2.373h-.947v-4.282h.939v.528c.352-.502.802-.636 1.263-.636.658 0 1.127.287 1.424.762.398-.601.966-.771 1.516-.762 1.047.01 1.696.69 1.696 1.702z" fill="#231F20"/><path d="M34.309 29.514H20.101V4.149h14.208v25.365z" fill="#FF5F00"/><path d="M21.002 16.832c0-5.146 2.425-9.729 6.202-12.683A16.236 16.236 0 0017.17.7C8.2.7.932 7.922.932 16.832s7.27 16.132 16.237 16.132c3.788 0 7.273-1.29 10.035-3.45-3.777-2.953-6.202-7.537-6.202-12.682z" fill="#EB001B"/><path d="M53.478 16.832c0 8.91-7.27 16.132-16.238 16.132-3.788 0-7.273-1.29-10.036-3.45 3.778-2.953 6.203-7.537 6.203-12.682 0-5.146-2.425-9.729-6.203-12.683A16.241 16.241 0 0137.24.7c8.968 0 16.238 7.222 16.238 16.132z" fill="#F79E1B"/></svg>