<svg width="62" height="43" viewBox="0 0 62 43" fill="none" xmlns="http://www.w3.org/2000/svg"><path fill-rule="evenodd" clip-rule="evenodd" d="M27.29 21.371l.366-2.332-.815-.019h-3.89l2.704-17.21a.22.22 0 01.22-.188h6.558c2.178 0 3.68.454 4.465 1.352.368.421.602.862.716 1.346.119.508.12 1.116.005 1.856l-.009.054v.475l.368.21c.31.164.556.353.745.57.314.36.518.817.604 1.36.089.558.06 1.223-.086 1.974-.168.865-.44 1.619-.806 2.235a4.586 4.586 0 01-1.276 1.404 5.164 5.164 0 01-1.719.78c-.633.165-1.356.248-2.148.248h-.51a1.542 1.542 0 00-1.518 1.301l-.039.21-.646 4.111-.03.151c-.007.048-.02.072-.04.088a.107.107 0 01-.067.024H27.29z" fill="#28356A"/><path fill-rule="evenodd" clip-rule="evenodd" d="M38.327 6.285c-.02.126-.042.254-.067.386-.865 4.46-3.825 6-7.604 6H28.73a.935.935 0 00-.924.795l-1.264 8.052c-.047.3.184.572.486.572h3.413a.822.822 0 00.811-.695l.034-.174.643-4.095.041-.225a.822.822 0 01.811-.696h.51c3.307 0 5.896-1.348 6.653-5.25.316-1.629.152-2.99-.684-3.947a3.26 3.26 0 00-.934-.723z" fill="#298FC2"/><path fill-rule="evenodd" clip-rule="evenodd" d="M37.422 5.923a6.755 6.755 0 00-.841-.188 10.657 10.657 0 00-1.697-.124h-5.14a.823.823 0 00-.81.696l-1.095 6.956-.031.203a.936.936 0 01.923-.795h1.925c3.78 0 6.739-1.541 7.604-6 .026-.132.047-.26.067-.386a4.591 4.591 0 00-.905-.362z" fill="#22284F"/><path fill-rule="evenodd" clip-rule="evenodd" d="M28.933 6.307a.82.82 0 01.81-.695h5.141c.61 0 1.178.04 1.697.124a6.756 6.756 0 011.036.248c.255.085.492.185.71.301.258-1.648-.002-2.77-.889-3.786C36.46 1.381 34.694.902 32.435.902h-6.56a.938.938 0 00-.926.795l-2.732 17.388a.565.565 0 00.556.654h4.05l2.11-13.432zM7.964 26.105H3.182a.665.665 0 00-.657.563L.591 38.981a.4.4 0 00.394.462H3.27a.665.665 0 00.656-.564l.522-3.32a.664.664 0 01.656-.564h1.514c3.15 0 4.968-1.531 5.443-4.564.214-1.327.009-2.37-.61-3.1-.68-.802-1.885-1.226-3.486-1.226zm.552 4.497c-.262 1.723-1.573 1.723-2.84 1.723h-.722l.506-3.218a.399.399 0 01.394-.337h.33c.864 0 1.679 0 2.1.494.25.295.328.733.232 1.338zm13.867-.148h-2.29a.4.4 0 00-.394.337l-.102.643-.16-.233c-.495-.722-1.601-.964-2.704-.964-2.531 0-4.693 1.925-5.114 4.625-.219 1.346.092 2.634.854 3.532.697.825 1.696 1.17 2.884 1.17 2.04 0 3.17-1.317 3.17-1.317l-.102.64a.4.4 0 00.393.462h2.063a.665.665 0 00.656-.563l1.238-7.87a.398.398 0 00-.392-.462zm-3.193 4.475c-.22 1.313-1.259 2.195-2.584 2.195-.665 0-1.196-.214-1.537-.62-.339-.402-.467-.976-.36-1.615.207-1.303 1.263-2.213 2.567-2.213.65 0 1.179.217 1.527.626.349.414.487.99.387 1.627zm15.213-4.279H32.1c-.22 0-.426.11-.55.294l-3.174 4.694-1.346-4.511a.667.667 0 00-.637-.476h-2.262a.4.4 0 00-.378.53l2.535 7.468-2.383 3.378a.4.4 0 00.325.632h2.298a.663.663 0 00.546-.286l7.655-11.094a.4.4 0 00-.327-.628z" fill="#28356A"/><path fill-rule="evenodd" clip-rule="evenodd" d="M42.075 26.105h-4.783a.665.665 0 00-.656.563l-1.934 12.313a.399.399 0 00.393.462h2.455a.465.465 0 00.458-.395l.55-3.49a.665.665 0 01.655-.563h1.514c3.15 0 4.968-1.531 5.444-4.564.214-1.327.008-2.37-.61-3.1-.68-.802-1.885-1.226-3.486-1.226zm.552 4.497c-.26 1.723-1.572 1.723-2.84 1.723h-.721l.507-3.218a.398.398 0 01.393-.337h.33c.864 0 1.679 0 2.1.494.25.295.327.733.231 1.338zm13.862-.148H54.2a.397.397 0 00-.393.337l-.101.643-.161-.233c-.496-.722-1.6-.964-2.704-.964-2.53 0-4.692 1.925-5.113 4.625-.218 1.346.092 2.634.853 3.532.7.825 1.696 1.17 2.884 1.17 2.04 0 3.17-1.317 3.17-1.317l-.102.64a.4.4 0 00.395.462h2.062a.665.665 0 00.656-.563l1.238-7.87a.4.4 0 00-.395-.462zm-3.192 4.475c-.22 1.313-1.26 2.195-2.584 2.195-.664 0-1.197-.214-1.538-.62-.338-.402-.466-.976-.36-1.615.208-1.303 1.263-2.213 2.567-2.213.65 0 1.179.217 1.527.626.35.414.489.99.388 1.627zM59 26.443l-1.964 12.539a.399.399 0 00.393.462h1.974a.664.664 0 00.656-.564l1.936-12.312a.4.4 0 00-.393-.463h-2.21a.4.4 0 00-.393.338z" fill="#298FC2"/></svg>