<svg width="70" height="22" viewBox="0 0 70 22" fill="none" xmlns="http://www.w3.org/2000/svg"><path d="M30.296 20.778h-5.593l3.498-20.3h5.592l-3.497 20.3zM50.569.974C49.466.563 47.716.109 45.553.109c-5.523 0-9.412 2.765-9.436 6.717-.046 2.915 2.785 4.535 4.902 5.507 2.163.994 2.899 1.642 2.899 2.528-.022 1.36-1.749 1.987-3.359 1.987-2.233 0-3.429-.324-5.247-1.08l-.736-.325L33.793 20c1.312.561 3.728 1.06 6.237 1.08 5.868 0 9.688-2.72 9.734-6.932.022-2.311-1.473-4.082-4.695-5.529-1.956-.929-3.154-1.555-3.154-2.505.023-.864 1.014-1.75 3.222-1.75 1.818-.043 3.154.367 4.166.778l.505.215.76-4.383z" fill="#15195A"/><path fill-rule="evenodd" clip-rule="evenodd" d="M60.58.477h4.325l4.512 20.3H64.24s-.507-2.332-.667-3.044h-7.18l-1.174 3.045H49.35L57.656 2.16C58.233.844 59.247.477 60.58.477zm-.345 7.429s-1.772 4.514-2.233 5.68h4.649c-.23-1.015-1.29-5.874-1.29-5.874l-.39-1.75c-.165.45-.403 1.07-.563 1.488-.11.283-.182.473-.173.456zM.471.477h8.998c1.22.043 2.209.41 2.531 1.707l1.955 9.326.001.003.599 2.807L20.032.477h5.913l-8.79 20.28H11.24L6.256 3.116C4.536 2.173 2.573 1.414.38.887l.09-.41z" fill="#15195A"/></svg>