<svg width="73" height="15" viewBox="0 0 73 15" fill="none" xmlns="http://www.w3.org/2000/svg">
<path fill-rule="evenodd" clip-rule="evenodd" d="M42.1221 8.2327H40.7208C40.5825 8.22528 40.4736 8.10962 40.4718 7.96828V0.596734C40.4867 0.456773 40.6041 0.35179 40.7419 0.355252H42.0462C42.165 0.359144 42.2667 0.443295 42.2951 0.561147V1.68849H42.3225C42.7158 0.680617 43.2671 0.200195 44.2379 0.200195C44.8676 0.200195 45.4824 0.43278 45.8794 1.06826C46.2466 1.65798 46.2466 2.6506 46.2466 3.36361V8.00133C46.226 8.13664 46.1106 8.23553 45.9765 8.2327H44.5627C44.4359 8.2271 44.3311 8.12973 44.3138 8.00133V3.99908C44.3138 3.93697 44.3143 3.87264 44.3149 3.80681V3.80622V3.80562V3.80502C44.3217 3.01696 44.3303 2.01385 43.4339 2.01385C43.073 2.03089 42.7549 2.26132 42.6199 2.60357C42.4233 3.05349 42.3972 3.50341 42.3972 4.00163V7.96828C42.3918 8.11791 42.27 8.23551 42.1234 8.2327H42.1221ZM36.1856 0.210449C38.2727 0.210449 39.4015 2.04063 39.4015 4.36648C39.4015 6.6148 38.157 8.39795 36.1856 8.39795C34.1383 8.39795 33.0232 6.56777 33.0232 4.28895C33.0232 2.01012 34.152 0.210449 36.1856 0.210449ZM36.1993 1.71509C35.1626 1.71509 35.0966 3.15635 35.0966 4.05619L35.0966 4.08601C35.0965 4.99774 35.0962 6.87772 36.1856 6.87772C37.287 6.87772 37.3281 5.32715 37.3281 4.38156C37.3281 3.76133 37.302 3.01655 37.1178 2.42809C36.9597 1.91971 36.6448 1.71509 36.1993 1.71509ZM10.2043 8.24793H8.79919C8.66884 8.24095 8.56303 8.13775 8.55028 8.0051V0.633558C8.555 0.485838 8.67438 0.36901 8.8191 0.37047H10.1296C10.2639 0.378035 10.3711 0.487531 10.3785 0.624661V1.58677H10.4047C10.7457 0.655164 11.3891 0.221768 12.2553 0.221768C13.1215 0.221768 13.6853 0.655164 14.0798 1.58677C14.3432 0.869832 14.9647 0.353659 15.7057 0.236452C16.4467 0.119244 17.192 0.419221 17.6554 1.0212C18.0377 1.5519 18.0255 2.29103 18.014 2.9854V2.98542V2.98544V2.98546V2.98548V2.9855V2.98552V2.98554C18.0121 3.10264 18.0101 3.21846 18.0101 3.3318V7.98223C18.0088 8.05425 17.9795 8.12278 17.9285 8.17263C17.8776 8.22249 17.8093 8.24956 17.7388 8.24793H16.3337C16.1955 8.2405 16.0866 8.12484 16.0848 7.9835V4.07658C16.0848 4.01741 16.0858 3.9413 16.0868 3.85482V3.8548V3.85477V3.85475V3.85472V3.8547V3.85467V3.85465C16.0914 3.48792 16.0983 2.93488 16.045 2.69632C15.9404 2.20065 15.6256 2.06084 15.2186 2.06084C14.8456 2.07248 14.5152 2.3099 14.3785 2.66455C14.2445 3.01149 14.2456 3.56992 14.2465 3.98373L14.2466 4.07658V7.98223C14.2453 8.05403 14.2161 8.12236 14.1655 8.17218C14.1148 8.22199 14.0468 8.24922 13.9765 8.24793H12.5677C12.4297 8.23989 12.3212 8.12458 12.3188 7.9835V4.07658C12.3188 3.99652 12.32 3.91277 12.3212 3.82681C12.3324 3.0299 12.3463 2.04305 11.4476 2.04305C10.4755 2.04305 10.4762 3.16622 10.4768 4.01544L10.4768 4.07658V7.98223C10.4755 8.05425 10.4462 8.12278 10.3953 8.17263C10.3443 8.22249 10.2761 8.24956 10.2055 8.24793H10.2043ZM6.02134 8.33811C6.12808 8.3995 6.26109 8.38576 6.35364 8.30379L6.36484 8.30633C6.64486 8.05087 7.15513 7.59841 7.44262 7.35312C7.55214 7.2578 7.53223 7.09893 7.44262 6.97183C7.41527 6.93337 7.38774 6.89568 7.36037 6.85821C7.12995 6.54273 6.9112 6.24323 6.9112 5.64114V3.40553C6.9112 3.33332 6.91155 3.26154 6.9119 3.19027C6.91617 2.32695 6.92007 1.53697 6.28892 0.933516C5.75127 0.404798 4.85768 0.219238 4.17318 0.219238C2.83528 0.219238 1.34182 0.728892 1.02943 2.41672C1.01648 2.48503 1.03152 2.55578 1.07103 2.61246C1.11054 2.66914 1.17108 2.7068 1.23852 2.71667L2.59011 2.86791C2.7221 2.84747 2.82419 2.73904 2.83902 2.60355C2.956 2.02273 3.43391 1.74184 3.97032 1.74184C4.26154 1.74184 4.58761 1.84988 4.75936 2.11423C4.93563 2.37969 4.93289 2.73194 4.93043 3.04834C4.93015 3.08491 4.92987 3.121 4.92987 3.15642V3.34198C4.80225 3.3567 4.6685 3.37065 4.53074 3.38501L4.53067 3.38502L4.53056 3.38503L4.53045 3.38504L4.53033 3.38505L4.53025 3.38506L4.53019 3.38507L4.53015 3.38507L4.53012 3.38507L4.53012 3.38507C3.78806 3.46243 2.92973 3.55191 2.28643 3.84019C1.41525 4.22911 0.792969 5.02091 0.792969 6.18638C0.792969 7.67848 1.71394 8.42453 2.89751 8.42453C3.89689 8.42453 4.44325 8.18432 5.21611 7.38108C5.25338 7.43648 5.28699 7.48769 5.31871 7.53601L5.31871 7.53601C5.50308 7.81688 5.62313 7.99977 6.02134 8.33811ZM4.93613 4.87331L4.93609 4.80372V4.49487C3.91929 4.49487 2.84524 4.71729 2.84524 5.93995C2.84524 6.56272 3.16011 6.98213 3.699 6.98213C4.09477 6.98213 4.44947 6.73303 4.67349 6.32886C4.93705 5.85024 4.93663 5.40196 4.93613 4.87331ZM25.8695 6.9667C25.8421 6.92819 25.8145 6.89043 25.7871 6.85291C25.5567 6.53751 25.3381 6.23813 25.3381 5.63728V3.4004C25.3381 3.32356 25.3385 3.24724 25.3389 3.17149C25.3438 2.31259 25.3483 1.52872 24.7158 0.928389C24.1769 0.399671 23.2833 0.214111 22.6 0.214111C21.2621 0.214111 19.7687 0.722494 19.4551 2.41159C19.4417 2.48028 19.4568 2.55155 19.4966 2.60856C19.5364 2.66557 19.5975 2.70329 19.6654 2.71281L21.0282 2.86278C21.16 2.84193 21.2618 2.73372 21.2771 2.59842C21.3953 2.0176 21.8707 1.73672 22.4071 1.73672C22.6971 1.73672 23.0294 1.84602 23.1962 2.11038C23.3737 2.37484 23.3709 2.72723 23.3685 3.04375C23.3682 3.08013 23.3679 3.11604 23.3679 3.15129V3.33304C23.2427 3.34729 23.1116 3.36082 22.9766 3.37475C22.2323 3.45154 21.3692 3.5406 20.7245 3.82998C19.8434 4.21889 19.2248 5.0107 19.2248 6.17744C19.2248 7.66827 20.1458 8.41432 21.3294 8.41432C22.325 8.41432 22.8751 8.17411 23.6467 7.37086C23.6834 7.42543 23.7166 7.47585 23.7478 7.52337L23.7478 7.52338C23.9348 7.8079 24.0533 7.98811 24.4532 8.32789C24.5598 8.38887 24.6924 8.37569 24.7855 8.29485C25.0655 8.04066 25.5758 7.58693 25.8633 7.34163C25.984 7.25394 25.9641 7.09888 25.8695 6.9667ZM23.1066 6.32227C22.8838 6.72516 22.5279 6.97427 22.1333 6.97427C21.5944 6.97427 21.2796 6.55486 21.2796 5.93336C21.2796 4.70943 22.3536 4.48828 23.3704 4.48828V4.79839L23.3704 4.85538C23.3708 5.39064 23.371 5.84104 23.1066 6.32227ZM27.0593 1.65788V0.608072C27.056 0.536199 27.0827 0.466273 27.1328 0.415639C27.1828 0.365004 27.2515 0.338406 27.3219 0.342442H31.9429C32.0132 0.34001 32.0813 0.367003 32.1316 0.417162C32.1819 0.46732 32.21 0.536287 32.2092 0.608072V1.51172C32.2092 1.66297 32.0848 1.86123 31.862 2.17389L29.4675 5.66394C30.3561 5.64233 31.2957 5.77832 32.1035 6.24222C32.2526 6.32345 32.3476 6.48017 32.3524 6.65274V7.78135C32.3524 7.93641 32.1868 8.11561 32.0114 8.02283C30.4785 7.21825 28.659 7.22156 27.129 8.03173C26.9684 8.11942 26.8004 7.94276 26.8004 7.7877V6.71375C26.7857 6.46059 26.8455 6.20873 26.9722 5.99057L29.7463 1.92351H27.3269C27.2564 1.9263 27.1879 1.89946 27.1373 1.84927C27.0868 1.79907 27.0585 1.72989 27.0593 1.65788ZM51.4837 1.27935C51.8369 0.961279 52.2405 0.706851 52.6772 0.526944C53.0898 0.359004 53.5299 0.27274 53.974 0.272753C54.4155 0.264361 54.8534 0.354586 55.2571 0.537112C55.6376 0.715248 55.9709 0.983676 56.2291 1.32002C56.5104 1.69264 56.7183 2.11732 56.8415 2.57064C56.9907 3.10791 57.0628 3.66446 57.0555 4.22289C57.0623 4.79319 56.9851 5.3613 56.8265 5.90817C56.6938 6.37223 56.4763 6.80647 56.1856 7.18803C55.9156 7.53493 55.5728 7.81551 55.1825 8.00907C54.7723 8.2035 54.324 8.29957 53.872 8.28995C53.027 8.30422 52.2092 7.98561 51.5882 7.40028V10.9285C51.6001 11.0115 51.5728 11.0953 51.5147 11.1547C51.4566 11.214 51.3745 11.2418 51.2932 11.2297H50.4221C50.3408 11.2418 50.2586 11.214 50.2005 11.1547C50.1425 11.0953 50.1152 11.0115 50.1271 10.9285V0.797658C50.1158 0.714761 50.1432 0.63124 50.2011 0.572055C50.2591 0.51287 50.3409 0.484877 50.4221 0.496441H51.0705C51.1551 0.488359 51.2392 0.51597 51.3034 0.572861C51.3676 0.629753 51.4062 0.710974 51.4102 0.797658L51.4837 1.27935ZM53.5621 1.4749C52.8475 1.48067 52.1542 1.72381 51.587 2.16758V6.36173C52.2159 6.8447 52.8643 7.08575 53.5322 7.08491C54.8879 7.08491 55.5658 6.15287 55.5658 4.2888C55.5658 2.42473 54.8979 1.48634 53.5621 1.47363V1.4749ZM58.8962 1.84599L59.007 1.80786C59.708 1.58737 60.4366 1.47178 61.17 1.4647C61.7599 1.46555 62.1727 1.57612 62.4084 1.79642C62.644 2.01672 62.7618 2.39801 62.7618 2.94028V3.92909C62.1548 3.77006 61.5315 3.68474 60.9049 3.6749C60.0404 3.67405 59.3526 3.89223 58.8415 4.32944C58.3304 4.76665 58.0748 5.35129 58.0748 6.08336C58.0765 6.76544 58.2839 7.30983 58.6971 7.71654C59.1103 8.12324 59.6703 8.3266 60.3772 8.3266C60.8144 8.32474 61.2472 8.23849 61.6529 8.07241C62.0808 7.90182 62.4769 7.65766 62.824 7.3505L62.8987 7.84745C62.9024 7.92999 62.9392 8.00735 63.0003 8.06142C63.0615 8.11549 63.1418 8.14152 63.2223 8.13341H63.857C63.9382 8.14498 64.02 8.11698 64.0779 8.0578C64.1359 7.99861 64.1633 7.91509 64.152 7.8322V2.68991C64.1511 1.86633 63.9296 1.25923 63.4874 0.868626C63.0452 0.478018 62.3573 0.282715 61.4239 0.282715C60.9594 0.282715 60.4958 0.325292 60.0387 0.40981C59.6398 0.474905 59.2494 0.586196 58.8751 0.74153C58.7845 0.772819 58.7035 0.827559 58.6398 0.9004C58.5915 0.989904 58.5707 1.09222 58.5801 1.19399V1.59688C58.5801 1.77863 58.6473 1.86887 58.7718 1.86887C58.8142 1.86822 58.8562 1.86049 58.8962 1.84599ZM61.7487 7.00493C61.4233 7.1291 61.0793 7.19489 60.7319 7.19939C60.3486 7.20023 60.0536 7.09771 59.847 6.89181C59.6405 6.68592 59.5372 6.39233 59.5372 6.01104C59.5363 5.13747 60.0918 4.70068 61.2036 4.70068C61.4671 4.70124 61.7302 4.71907 61.9914 4.75406C62.2517 4.78756 62.5101 4.83508 62.7655 4.89641V6.433C62.4568 6.67492 62.114 6.86774 61.7487 7.00493ZM68.0263 10.9577C68.3747 10.656 68.6821 10.1591 68.9485 9.46684L72.1918 1.03786C72.2454 0.923689 72.2803 0.801328 72.2951 0.675637C72.2951 0.556167 72.2266 0.495161 72.0885 0.495161H71.2634C71.15 0.48406 71.0362 0.510341 70.9385 0.570147C70.8553 0.665076 70.7952 0.778731 70.763 0.901867L68.7718 6.74191L66.707 0.901867C66.6749 0.778731 66.6148 0.665076 66.5316 0.570147C66.4339 0.510341 66.3201 0.48406 66.2067 0.495161H65.3219C65.185 0.495161 65.1165 0.556167 65.1165 0.675637C65.1307 0.80131 65.1652 0.923712 65.2186 1.03786L68.0586 8.20732L67.7786 8.9699C67.6118 9.45201 67.4251 9.78331 67.2186 9.96379C66.9697 10.1585 66.6602 10.2547 66.3474 10.2345C66.2144 10.2373 66.0814 10.2271 65.9503 10.204C65.8774 10.188 65.8033 10.1782 65.7288 10.1748C65.5807 10.1748 65.5073 10.2701 65.5073 10.4607V10.8522C65.4991 10.9601 65.5248 11.0678 65.5807 11.1598C65.642 11.2328 65.7251 11.2833 65.8172 11.3034C66.0912 11.3772 66.3738 11.4127 66.6573 11.4089C67.2215 11.4097 67.6778 11.2593 68.0263 10.9577Z" fill="#232F3E"/>
<path fill-rule="evenodd" clip-rule="evenodd" d="M29.3701 12.9352C29.69 12.123 30.4018 10.303 30.0633 9.86199H30.0658C29.7288 9.42001 27.837 9.65195 26.9861 9.75628L26.9843 9.7565C26.7254 9.78827 26.6856 9.55823 26.9183 9.39174C28.4292 8.30761 30.9046 8.61772 31.1921 8.98376C31.4796 9.34979 31.1137 11.8841 29.6987 13.094C29.4809 13.2796 29.273 13.1805 29.3701 12.9352ZM19.2033 14.1883C22.4939 14.1883 26.3259 13.127 28.9656 11.138V11.1418C29.4025 10.8063 29.0279 10.3131 28.5823 10.5063C25.701 11.7474 22.608 12.3953 19.4809 12.4128C15.1424 12.4128 10.9457 11.1977 7.55058 9.18071C7.25313 9.00404 7.0316 9.31543 7.28051 9.54293C10.5491 12.5545 14.8011 14.2112 19.2033 14.1883Z" fill="#FF9900"/>
</svg>
