<svg width="54" height="23" viewBox="0 0 54 23" fill="none" xmlns="http://www.w3.org/2000/svg">
<path fill-rule="evenodd" clip-rule="evenodd" d="M10.4571 3.64358C9.84615 4.37546 8.86856 4.95271 7.89098 4.87024C7.76878 3.88067 8.24739 2.82925 8.80746 2.17984C9.41845 1.42735 10.4877 0.89133 11.3533 0.850098C11.4551 1.8809 11.0579 2.89109 10.4571 3.64358ZM11.3431 5.06615C10.4818 5.01597 9.69599 5.32833 9.06125 5.58063C8.65278 5.74299 8.30688 5.88049 8.04372 5.88049C7.7484 5.88049 7.38822 5.73564 6.98382 5.57302C6.45392 5.35993 5.84809 5.1163 5.21279 5.128C3.75659 5.14861 2.40223 5.98357 1.65886 7.31331C0.131379 9.97278 1.26171 13.9105 2.73828 16.0752C3.46128 17.1472 4.32685 18.3223 5.46737 18.2811C5.96913 18.2619 6.33007 18.1069 6.7036 17.9464C7.13364 17.7617 7.58038 17.5698 8.27793 17.5698C8.9513 17.5698 9.3785 17.7567 9.78859 17.9361C10.1785 18.1067 10.553 18.2705 11.1089 18.2605C12.2901 18.2398 13.0335 17.1884 13.7565 16.1164C14.5367 14.9658 14.8796 13.8429 14.9316 13.6725L14.9377 13.6528C14.9365 13.6515 14.9269 13.647 14.9098 13.6392C14.649 13.5183 12.6555 12.5944 12.6363 10.1171C12.6171 8.03773 14.2176 6.9842 14.4695 6.81835C14.4848 6.80826 14.4952 6.80145 14.4999 6.7979C13.4815 5.27231 11.893 5.10738 11.3431 5.06615ZM19.5202 18.1469V2.07666H25.4773C28.5527 2.07666 30.7013 4.22074 30.7013 7.35439C30.7013 10.488 28.5119 12.6527 25.3959 12.6527H21.9845V18.1469H19.5202ZM21.9845 4.17969H24.8256C26.9641 4.17969 28.1861 5.33419 28.1861 7.36488C28.1861 9.39556 26.9641 10.5604 24.8154 10.5604H21.9845V4.17969ZM38.8377 16.2194C38.186 17.477 36.7501 18.2707 35.2023 18.2707C32.9111 18.2707 31.3123 16.8894 31.3123 14.8072C31.3123 12.7456 32.8601 11.5602 35.7216 11.3849L38.7969 11.1994V10.3129C38.7969 9.00377 37.9517 8.29251 36.4446 8.29251C35.2023 8.29251 34.296 8.94192 34.1127 9.9315H31.8927C31.964 7.84927 33.8988 6.33398 36.5159 6.33398C39.3367 6.33398 41.1696 7.82865 41.1696 10.148V18.147H38.8886V16.2194H38.8377ZM35.8642 16.3638C34.5506 16.3638 33.7155 15.7247 33.7155 14.7454C33.7155 13.7352 34.52 13.1476 36.0577 13.0549L38.7969 12.8796V13.7867C38.7969 15.2917 37.5342 16.3638 35.8642 16.3638ZM48.7358 18.7757C47.748 21.5898 46.6176 22.5176 44.2144 22.5176C44.0311 22.5176 43.4201 22.4969 43.2776 22.4557V20.5281C43.4303 20.5487 43.8071 20.5693 44.0006 20.5693C45.0902 20.5693 45.7012 20.1055 46.0779 18.8994L46.302 18.1882L42.1269 6.48853H44.7032L47.6054 15.9822H47.6563L50.5585 6.48853H53.0636L48.7358 18.7757Z" fill="black"/>
</svg>
