<svg width="70" height="22" viewBox="0 0 70 22" fill="none" xmlns="http://www.w3.org/2000/svg">
<path fill-rule="evenodd" clip-rule="evenodd" d="M21.4811 4.45293C22.0691 4.45293 22.5766 4.55763 23.0033 4.76386C23.4319 4.9719 23.7862 5.25214 24.0698 5.60459C24.3498 5.95884 24.5582 6.37311 24.6928 6.8474C24.8264 7.32349 24.8935 7.83479 24.8935 8.38264C24.8935 9.22336 24.739 10.0185 24.4264 10.7676C24.1142 11.5176 23.6902 12.1684 23.151 12.7235C22.6124 13.2781 21.9763 13.7149 21.2428 14.0376C20.5102 14.3611 19.7142 14.5222 18.8593 14.5222C18.7487 14.5222 18.5544 14.5195 18.2798 14.5132C18.0053 14.5078 17.6895 14.4798 17.3361 14.432C16.9805 14.3828 16.6045 14.3097 16.2071 14.2118C15.8103 14.1156 15.4333 13.9807 15.0781 13.8097L18.2522 0.525029L21.0951 0.0859375L19.9588 4.79996C20.2021 4.69075 20.4472 4.60591 20.6919 4.54454C20.9379 4.48497 21.2002 4.45293 21.4811 4.45293ZM19.0967 12.2763C19.5248 12.2763 19.928 12.1716 20.3072 11.9654C20.6874 11.7596 21.0154 11.4812 21.2899 11.1341C21.5645 10.7862 21.7824 10.3936 21.9409 9.95496C22.0995 9.51677 22.1797 9.05963 22.1797 8.58353C22.1797 7.99913 22.0818 7.54289 21.8861 7.21346C21.6904 6.88493 21.3289 6.72021 20.8033 6.72021C20.6312 6.72021 20.4092 6.75271 20.1342 6.81092C19.8583 6.87365 19.6114 7.00226 19.3898 7.19586L18.1797 12.2028C18.2527 12.2149 18.3174 12.2276 18.3723 12.2389C18.4262 12.251 18.4855 12.2601 18.5449 12.2664C18.6079 12.2736 18.6794 12.2768 18.766 12.2768C18.8525 12.2768 18.9621 12.2763 19.0967 12.2763Z" fill="#4D4D4D"/>
<path fill-rule="evenodd" clip-rule="evenodd" d="M27.8425 14.2672H25.127L27.4203 4.65552H30.1545L27.8425 14.2672ZM29.1636 3.48532C28.7844 3.48532 28.441 3.3725 28.1361 3.14777C27.8285 2.92393 27.6763 2.57916 27.6763 2.1148C27.6763 1.85938 27.7284 1.6193 27.8317 1.39366C27.9363 1.16802 28.0736 0.97307 28.2453 0.808354C28.417 0.644541 28.6154 0.513671 28.8411 0.414842C29.068 0.317818 29.3095 0.269531 29.5668 0.269531C29.9456 0.269531 30.2876 0.381899 30.5935 0.607085C30.8984 0.833174 31.0519 1.17795 31.0519 1.6396C31.0519 1.89593 31.0003 2.13691 30.8956 2.36255C30.7919 2.58819 30.6551 2.78223 30.4834 2.94785C30.3135 3.11166 30.1128 3.24208 29.8876 3.34001C29.6606 3.43839 29.4205 3.48532 29.1636 3.48532Z" fill="#4D4D4D"/>
<path fill-rule="evenodd" clip-rule="evenodd" d="M32.5336 2.262L35.3779 1.82291L34.6793 4.65556H37.7251L37.1751 6.88441H34.1474L33.341 10.2469C33.2667 10.5271 33.2245 10.7888 33.2127 11.0316C33.1996 11.2762 33.2304 11.4861 33.3038 11.6625C33.3768 11.8394 33.5081 11.9757 33.6984 12.0727C33.8878 12.1707 34.1592 12.2198 34.5144 12.2198C34.807 12.2198 35.0925 12.1923 35.3684 12.1368C35.6425 12.0831 35.9206 12.0073 36.202 11.9085L36.4045 13.9929C36.0375 14.1269 35.6402 14.2425 35.2121 14.3395C34.7835 14.4374 34.2756 14.4848 33.6889 14.4848C32.8453 14.4848 32.1911 14.3607 31.7254 14.112C31.2601 13.8616 30.9312 13.52 30.7341 13.0872C30.5397 12.6562 30.4532 12.1589 30.4777 11.5989C30.5031 11.0375 30.5878 10.4472 30.7341 9.82583L32.5336 2.262Z" fill="#4D4D4D"/>
<path fill-rule="evenodd" clip-rule="evenodd" d="M37.6055 10.4305C37.6055 9.60242 37.74 8.82217 38.0091 8.09065C38.2773 7.35913 38.6642 6.71968 39.1662 6.17047C39.6664 5.62398 40.2753 5.19121 40.992 4.87396C41.7056 4.55762 42.5043 4.39832 43.385 4.39832C43.9359 4.39832 44.4284 4.44976 44.8615 4.55401C45.2965 4.6587 45.6902 4.79454 46.0458 4.96467L45.1093 7.08611C44.8647 6.98728 44.6105 6.90019 44.3482 6.82076C44.0854 6.74044 43.7647 6.70163 43.3855 6.70163C42.4794 6.70163 41.7627 7.01255 41.2294 7.63261C40.6984 8.25356 40.4307 9.08887 40.4307 10.1372C40.4307 10.7586 40.5652 11.2604 40.8353 11.6449C41.1039 12.0289 41.6 12.2198 42.3208 12.2198C42.6765 12.2198 43.0194 12.1828 43.3483 12.1106C43.6795 12.0375 43.9717 11.9459 44.2295 11.8367L44.432 14.0109C44.0886 14.1441 43.7099 14.2641 43.2944 14.3688C42.8781 14.4703 42.3824 14.5222 41.8075 14.5222C41.0491 14.5222 40.4067 14.4121 39.8816 14.1942C39.3561 13.973 38.9216 13.6792 38.5795 13.3074C38.2357 12.9346 37.9887 12.4992 37.8361 11.9996C37.6829 11.5018 37.6055 10.9775 37.6055 10.4305H37.6055Z" fill="#4D4D4D"/>
<path fill-rule="evenodd" clip-rule="evenodd" d="M49.6677 14.5231C49.0194 14.5231 48.4567 14.4252 47.9792 14.2307C47.5031 14.0357 47.1089 13.7627 46.7968 13.4085C46.4846 13.056 46.2504 12.6381 46.0905 12.1571C45.9301 11.6765 45.8535 11.1435 45.8535 10.56C45.8535 9.8276 45.9718 9.09563 46.2101 8.36547C46.4475 7.6344 46.7995 6.97734 47.2661 6.39294C47.7287 5.80764 48.2991 5.32929 48.9714 4.95608C49.6424 4.58604 50.4148 4.39966 51.282 4.39966C51.918 4.39966 52.4785 4.49804 52.9623 4.69254C53.4439 4.88749 53.8408 5.16231 54.1548 5.51476C54.4651 5.86901 54.7011 6.28509 54.8597 6.76705C55.0196 7.24676 55.098 7.78107 55.098 8.36502C55.098 9.09518 54.9816 9.82715 54.7505 10.5596C54.519 11.2879 54.1761 11.9468 53.723 12.5321C53.2709 13.1165 52.7054 13.5944 52.0263 13.9662C51.3472 14.3372 50.5603 14.5231 49.6677 14.5231ZM51.0246 6.70264C50.6219 6.70264 50.2662 6.81907 49.9613 7.04922C49.6555 7.28162 49.3986 7.57405 49.1916 7.9265C48.9823 8.2803 48.8269 8.66749 48.7222 9.08672C48.6185 9.50776 48.5673 9.90534 48.5673 10.2835C48.5673 10.8932 48.666 11.3679 48.8599 11.71C49.057 12.0498 49.4104 12.2208 49.9246 12.2208C50.3287 12.2208 50.6826 12.1053 50.9893 11.8729C51.2933 11.6423 51.5502 11.3499 51.759 10.9965C51.967 10.6445 52.1237 10.2564 52.2284 9.83629C52.3312 9.41661 52.3833 9.01678 52.3833 8.63951C52.3833 8.03119 52.285 7.55555 52.0893 7.21393C51.8936 6.87322 51.5384 6.70264 51.0246 6.70264Z" fill="#4D4D4D"/>
<path fill-rule="evenodd" clip-rule="evenodd" d="M58.0563 14.2672H55.3389L57.6322 4.65552H60.3677L58.0563 14.2672ZM59.3755 3.48532C58.9968 3.48532 58.6534 3.3725 58.3489 3.14777C58.0427 2.92393 57.8891 2.57916 57.8891 2.1148C57.8891 1.85938 57.9416 1.6193 58.0454 1.39366C58.1491 1.16802 58.2869 0.97307 58.4586 0.808354C58.6294 0.644541 58.8296 0.513671 59.0548 0.414842C59.2804 0.317818 59.5219 0.269531 59.7788 0.269531C60.1584 0.269531 60.5014 0.381899 60.8067 0.607085C61.1125 0.833174 61.2666 1.17795 61.2666 1.6396C61.2666 1.89593 61.2118 2.13691 61.1089 2.36255C61.0061 2.58819 60.8688 2.78223 60.6975 2.94785C60.5254 3.11166 60.3279 3.24208 60.1022 3.34001C59.8748 3.43839 59.6338 3.48532 59.3755 3.48532Z" fill="#4D4D4D"/>
<path fill-rule="evenodd" clip-rule="evenodd" d="M62.3229 5.09374C62.5291 5.03372 62.7592 4.96152 63.0098 4.883C63.2612 4.80448 63.5416 4.73137 63.8552 4.66548C64.1655 4.59779 64.5153 4.54319 64.9003 4.49987C65.2854 4.45654 65.7235 4.43533 66.2115 4.43533C67.6431 4.43533 68.6308 4.85051 69.1758 5.67905C69.7199 6.50759 69.8146 7.64119 69.4607 9.0776L68.2121 14.2673H65.4789L66.6894 9.18681C66.7628 8.86957 66.8213 8.5627 66.8639 8.26305C66.9074 7.96656 66.9046 7.70482 66.8544 7.47828C66.8068 7.25445 66.6926 7.07168 66.5164 6.92953C66.337 6.78919 66.066 6.71969 65.6986 6.71969C65.3448 6.71969 64.9846 6.7576 64.6167 6.8307L62.8367 14.2673H60.1025L62.3229 5.09374Z" fill="#4D4D4D"/>
<path fill-rule="evenodd" clip-rule="evenodd" d="M29.5143 19.9957L28.9816 20.9596H28.4053C28.8112 20.2303 29.2072 19.5588 29.5932 18.9451C29.9792 18.3314 30.3606 17.7519 30.7376 17.2068H31.2541C31.3084 17.4776 31.3583 17.7515 31.4036 18.0272C31.4489 18.3034 31.4933 18.5931 31.5368 18.8964C31.5803 19.1996 31.6219 19.5214 31.6618 19.8607C31.7017 20.2001 31.7433 20.5661 31.7868 20.96H31.2541C31.2359 20.7976 31.2196 20.6342 31.2051 20.47C31.1906 20.3057 31.1743 20.1477 31.1562 19.9961H29.5143V19.9957ZM31.1073 19.5728C31.0783 19.2808 31.0447 18.9897 31.0067 18.7009C30.9686 18.4121 30.9242 18.1142 30.8735 17.8074C30.7466 17.9915 30.589 18.2293 30.4005 18.5195C30.212 18.8106 29.9982 19.1612 29.759 19.5728H31.1073Z" fill="#4D4D4D"/>
<path fill-rule="evenodd" clip-rule="evenodd" d="M33.714 21.0403C33.4784 21.0403 33.2709 21.006 33.0915 20.9374C32.9121 20.8688 32.7626 20.7713 32.643 20.645C32.5234 20.5191 32.4337 20.3661 32.3739 20.1874C32.3141 20.0087 32.2842 19.8074 32.2842 19.5836C32.2842 19.2587 32.3358 18.9482 32.4391 18.6522C32.5424 18.3566 32.6892 18.0948 32.8795 17.8674C33.0698 17.6399 33.299 17.4585 33.5672 17.3227C33.8354 17.1873 34.134 17.1196 34.4643 17.1196C34.747 17.1196 34.9726 17.1485 35.1411 17.2063C35.3097 17.264 35.4302 17.3182 35.5027 17.3687L35.2852 17.802C35.2014 17.7478 35.0886 17.6964 34.9454 17.6476C34.8022 17.5993 34.6328 17.5745 34.4371 17.5745C34.187 17.5745 33.9623 17.6332 33.7629 17.751C33.5636 17.8683 33.3951 18.0199 33.2573 18.2058C33.1196 18.3918 33.0145 18.6012 32.942 18.834C32.8695 19.0669 32.8333 19.297 32.8333 19.5245C32.8333 20.2285 33.1395 20.5805 33.7521 20.5805C33.8825 20.5805 33.9994 20.571 34.1027 20.5529C34.206 20.5353 34.2975 20.5141 34.3773 20.4907C34.457 20.4672 34.5277 20.4415 34.5893 20.4121C34.6509 20.3833 34.7053 20.358 34.7524 20.3363L34.8176 20.7912C34.7741 20.8165 34.7171 20.8436 34.6464 20.8724C34.5757 20.9013 34.4933 20.9284 34.399 20.9541C34.3048 20.9794 34.1997 21.0001 34.0837 21.0164C33.9677 21.0326 33.8445 21.0403 33.714 21.0403Z" fill="#4D4D4D"/>
<path fill-rule="evenodd" clip-rule="evenodd" d="M36.7677 21.0403C36.5321 21.0403 36.3246 21.006 36.1452 20.9374C35.9658 20.8688 35.8163 20.7713 35.6967 20.645C35.5771 20.5191 35.4874 20.3661 35.4276 20.1874C35.3678 20.0087 35.3379 19.8074 35.3379 19.5836C35.3379 19.2587 35.3895 18.9482 35.4928 18.6522C35.5961 18.3566 35.7429 18.0948 35.9332 17.8674C36.1235 17.6399 36.3527 17.4585 36.6209 17.3227C36.8891 17.1873 37.1877 17.1196 37.518 17.1196C37.8007 17.1196 38.0263 17.1485 38.1948 17.2063C38.3634 17.264 38.4839 17.3182 38.5564 17.3687L38.3389 17.802C38.2551 17.7478 38.1423 17.6964 37.9991 17.6476C37.8559 17.5993 37.6865 17.5745 37.4908 17.5745C37.2407 17.5745 37.016 17.6332 36.8166 17.751C36.6173 17.8683 36.4488 18.0199 36.311 18.2058C36.1733 18.3918 36.0682 18.6012 35.9957 18.834C35.9232 19.0669 35.887 19.297 35.887 19.5245C35.887 20.2285 36.1933 20.5805 36.8058 20.5805C36.9363 20.5805 37.0531 20.571 37.1564 20.5529C37.2597 20.5353 37.3512 20.5141 37.431 20.4907C37.5107 20.4672 37.5814 20.4415 37.643 20.4121C37.7046 20.3833 37.759 20.358 37.8061 20.3363L37.8713 20.7912C37.8279 20.8165 37.7708 20.8436 37.7001 20.8724C37.6294 20.9013 37.547 20.9284 37.4527 20.9541C37.3585 20.9794 37.2534 21.0001 37.1374 21.0164C37.0214 21.0326 36.8982 21.0403 36.7677 21.0403Z" fill="#4D4D4D"/>
<path fill-rule="evenodd" clip-rule="evenodd" d="M38.2275 20.9591L39.13 17.2063H41.3536L41.2503 17.6449H39.5486L39.2768 18.7767H40.7882L40.6849 19.2045H39.1789L38.8582 20.5204H40.6849L40.5816 20.9591H38.2275H38.2275Z" fill="#4D4D4D"/>
<path fill-rule="evenodd" clip-rule="evenodd" d="M42.9277 17.1685C43.3662 17.1685 43.697 17.2515 43.9199 17.4176C44.1428 17.5836 44.2542 17.8255 44.2542 18.1432C44.2542 18.3887 44.208 18.6013 44.1156 18.7795C44.0232 18.9582 43.8918 19.1053 43.7214 19.2213C43.5511 19.3368 43.3463 19.4221 43.1071 19.4781C42.8679 19.534 42.6015 19.5625 42.3079 19.5625H41.9328L41.5957 20.9596H41.0684L41.96 17.2556C42.1122 17.2195 42.2735 17.196 42.4438 17.1852C42.6142 17.1739 42.7755 17.1685 42.9277 17.1685ZM42.8625 17.6123C42.6051 17.6123 42.4493 17.6195 42.3949 17.634L42.0361 19.1232H42.3786C42.5308 19.1232 42.6867 19.1101 42.8462 19.0826C43.0056 19.0555 43.1488 19.0076 43.2756 18.9395C43.4025 18.8709 43.5067 18.7761 43.5883 18.6548C43.6698 18.5338 43.7106 18.3781 43.7106 18.1868C43.7106 17.981 43.6345 17.8339 43.4822 17.745C43.33 17.6565 43.1234 17.6123 42.8625 17.6123Z" fill="#4D4D4D"/>
<path fill-rule="evenodd" clip-rule="evenodd" d="M47.4705 17.2063L47.3672 17.6449H46.231L45.4318 20.9591H44.9045L45.7036 17.6449H44.5674L44.6707 17.2063H47.4705Z" fill="#4D4D4D"/>
<path fill-rule="evenodd" clip-rule="evenodd" d="M46.9814 20.9591L47.8839 17.2063H50.1075L50.0042 17.6449H48.3025L48.0307 18.7767H49.5421L49.4388 19.2045H47.9329L47.6121 20.5204H49.4388L49.3355 20.9591H46.9814H46.9814Z" fill="#4D4D4D"/>
<path fill-rule="evenodd" clip-rule="evenodd" d="M51.6731 17.1685C52.2312 17.1685 52.648 17.2993 52.9235 17.5611C53.199 17.8228 53.3367 18.1757 53.3367 18.6198C53.3367 18.9302 53.2878 19.229 53.1899 19.5155C53.092 19.803 52.9398 20.0562 52.7332 20.2768C52.5266 20.4966 52.263 20.6722 51.9422 20.8021C51.6214 20.9321 51.2382 20.9971 50.7924 20.9971C50.6401 20.9971 50.4752 20.9899 50.2976 20.9754C50.12 20.961 49.9642 20.9357 49.8301 20.8996L50.7054 17.2551C50.8576 17.219 51.0189 17.1955 51.1892 17.1847C51.3596 17.1739 51.5209 17.1685 51.6731 17.1685ZM51.6296 17.6123C51.3578 17.6123 51.1947 17.6195 51.1403 17.634L50.4444 20.5257C50.4734 20.533 50.5224 20.5393 50.5912 20.5447C50.6601 20.5501 50.7724 20.5528 50.9283 20.5528C51.2146 20.5528 51.4729 20.5054 51.703 20.4098C51.9332 20.3141 52.128 20.1805 52.2874 20.0086C52.4469 19.8371 52.5701 19.6336 52.6571 19.3971C52.7441 19.1606 52.7876 18.9016 52.7876 18.62C52.7876 18.3023 52.6952 18.055 52.5103 17.8777C52.3255 17.7012 52.0319 17.6123 51.6296 17.6123Z" fill="#4D4D4D"/>
<path fill-rule="evenodd" clip-rule="evenodd" d="M57.3975 20.9591H56.8702L57.2888 19.2153H55.5436L55.125 20.9591H54.5977L55.5001 17.2063H56.0275L55.6469 18.7767H57.3925L57.7731 17.2063H58.3004L57.3975 20.9591Z" fill="#4D4D4D"/>
<path fill-rule="evenodd" clip-rule="evenodd" d="M58.2295 20.9591L59.132 17.2063H61.3555L61.2518 17.6449H59.5501L59.2783 18.7767H60.7897L60.6859 19.2045H59.18L58.8597 20.5204H60.6859L60.5822 20.9591H58.2295H58.2295Z" fill="#4D4D4D"/>
<path fill-rule="evenodd" clip-rule="evenodd" d="M62.9296 17.1685C63.3319 17.1685 63.6509 17.2497 63.8865 17.4121C64.1221 17.5746 64.2394 17.8129 64.2394 18.1265C64.2394 18.4442 64.1465 18.7109 63.9599 18.9257C63.7732 19.1405 63.5114 19.2949 63.1743 19.3883C63.2178 19.4645 63.2685 19.5611 63.3265 19.6785C63.3845 19.7958 63.4443 19.9258 63.5059 20.0684C63.5671 20.2105 63.6273 20.359 63.6853 20.512C63.7433 20.6658 63.7936 20.8143 63.8376 20.9587H63.2993C63.249 20.8215 63.196 20.6825 63.1417 20.5417C63.0878 20.4009 63.032 20.2656 62.9763 20.1356C62.9197 20.0056 62.8639 19.8838 62.8073 19.7701C62.7516 19.6563 62.6995 19.5557 62.6524 19.4695C62.6053 19.4731 62.5581 19.4758 62.511 19.4776C62.4639 19.4794 62.4172 19.4803 62.3697 19.4803H61.951L61.5977 20.9587H61.0703L61.9624 17.2547C62.1146 17.2185 62.2754 17.1951 62.4462 17.1843C62.6161 17.1739 62.7774 17.1685 62.9296 17.1685ZM62.8644 17.6123C62.607 17.6123 62.4512 17.6195 62.3964 17.634L62.0539 19.0532H62.3751C62.5237 19.0532 62.6759 19.0424 62.8317 19.0207C62.9876 18.9991 63.1299 18.9567 63.2581 18.8935C63.3867 18.8303 63.4918 18.7418 63.5734 18.6281C63.6549 18.5144 63.6962 18.3637 63.6962 18.1759C63.6962 17.9738 63.6191 17.8294 63.4651 17.7427C63.3111 17.6556 63.1104 17.6123 62.8644 17.6123Z" fill="#4D4D4D"/>
<path fill-rule="evenodd" clip-rule="evenodd" d="M64.2793 20.9591L65.1818 17.2063H67.4053L67.3016 17.6449H65.5999L65.3281 18.7767H66.8395L66.7357 19.2045H65.2298L64.9095 20.5204H66.7357L66.632 20.9591H64.2793H64.2793Z" fill="#4D4D4D"/>
<path fill-rule="evenodd" clip-rule="evenodd" d="M7.4873 14.5223C11.4892 14.5223 14.7334 11.2908 14.7334 7.30461C14.7334 3.31839 11.4892 0.0869141 7.4873 0.0869141C3.4854 0.0869141 0.241211 3.31839 0.241211 7.30461C0.241211 11.2908 3.4854 14.5223 7.4873 14.5223ZM10.6822 6.27566C10.8263 5.3149 10.0919 4.79864 9.08792 4.45386L9.41367 3.15193L8.61856 2.95428L8.30143 4.22191C8.09257 4.17001 7.87783 4.12082 7.66399 4.07254L7.98339 2.79678L7.18874 2.59912L6.86254 3.9006C6.68948 3.86134 6.51958 3.82253 6.35467 3.78146L6.35558 3.7774L5.25874 3.50483L5.04717 4.35097C5.04717 4.35097 5.63704 4.48545 5.62481 4.49403C5.94693 4.57435 6.00537 4.78645 5.9954 4.95478L5.62436 6.43722C5.64656 6.44264 5.6751 6.45031 5.70726 6.46385C5.68053 6.45663 5.65244 6.44986 5.623 6.44264L5.10289 8.52031C5.06348 8.61733 4.96336 8.76355 4.73819 8.70804C4.74634 8.71932 4.1601 8.56453 4.1601 8.56453L3.76504 9.4716L4.7998 9.72837C4.99235 9.77621 5.18127 9.82675 5.36657 9.87414L5.03766 11.1905L5.83185 11.3882L6.15805 10.0858C6.37506 10.144 6.58573 10.1986 6.79187 10.2496L6.46703 11.5457L7.26213 11.7433L7.5915 10.4297C8.94793 10.6851 9.96775 10.5822 10.3968 9.36013C10.7429 8.3759 10.3796 7.80865 9.66602 7.4386C10.1861 7.31946 10.5776 6.9792 10.6822 6.27566ZM8.86504 8.81425C8.61904 9.79803 6.95634 9.26598 6.41721 9.1324L6.85395 7.38867C7.39308 7.5227 9.12192 7.78805 8.86504 8.81425ZM9.11102 6.26174C8.88676 7.15616 7.50269 6.70173 7.05372 6.59072L7.44968 5.00854C7.89866 5.12046 9.34434 5.3285 9.11102 6.26174Z" fill="#F7931A"/>
</svg>
