<svg width="54" height="42" viewBox="0 0 54 42" fill="none" xmlns="http://www.w3.org/2000/svg">
<path fill-rule="evenodd" clip-rule="evenodd" d="M15.7753 36.7915V38.933V41.0744H14.8379V40.5545C14.5405 40.9401 14.0893 41.1821 13.4761 41.1821C12.2671 41.1821 11.3193 40.2417 11.3193 38.933C11.3193 37.6253 12.2671 36.6838 13.4761 36.6838C14.0893 36.6838 14.5405 36.9259 14.8379 37.3115V36.7915H15.7753ZM13.5927 37.5617C12.7812 37.5617 12.2846 38.1802 12.2846 38.933C12.2846 39.6858 12.7812 40.3042 13.5927 40.3042C14.3681 40.3042 14.8915 39.7124 14.8915 38.933C14.8915 38.1535 14.3681 37.5617 13.5927 37.5617ZM47.4547 38.933C47.4547 38.1802 47.9513 37.5617 48.7628 37.5617C49.5392 37.5617 50.0617 38.1535 50.0617 38.933C50.0617 39.7124 49.5392 40.3042 48.7628 40.3042C47.9513 40.3042 47.4547 39.6858 47.4547 38.933ZM50.9465 35.0716V38.933V41.0744H50.008V40.5545C49.7106 40.9401 49.2594 41.1821 48.6462 41.1821C47.4372 41.1821 46.4894 40.2417 46.4894 38.933C46.4894 37.6253 47.4372 36.6838 48.6462 36.6838C49.2594 36.6838 49.7106 36.9259 50.008 37.3115V35.0716H50.9465ZM27.412 37.5177C28.0159 37.5177 28.4041 37.8941 28.5032 38.5566H26.2659C26.3661 37.9382 26.744 37.5177 27.412 37.5177ZM25.283 38.933C25.283 37.5976 26.1668 36.6838 27.4305 36.6838C28.6385 36.6838 29.4686 37.5976 29.4778 38.933C29.4778 39.0581 29.4686 39.175 29.4593 39.2909H26.2577C26.3929 40.0622 26.9432 40.3401 27.5472 40.3401C27.9798 40.3401 28.4402 40.1781 28.8016 39.8919L29.261 40.5822C28.7376 41.0211 28.1429 41.1821 27.4935 41.1821C26.2029 41.1821 25.283 40.295 25.283 38.933ZM38.7502 38.933C38.7502 38.1802 39.2468 37.5617 40.0583 37.5617C40.8337 37.5617 41.3571 38.1535 41.3571 38.933C41.3571 39.7124 40.8337 40.3042 40.0583 40.3042C39.2468 40.3042 38.7502 39.6858 38.7502 38.933ZM42.2409 36.7915V38.933V41.0744H41.3035V40.5545C41.0051 40.9401 40.555 41.1821 39.9417 41.1821C38.7327 41.1821 37.7849 40.2417 37.7849 38.933C37.7849 37.6253 38.7327 36.6838 39.9417 36.6838C40.555 36.6838 41.0051 36.9259 41.3035 37.3115V36.7915H42.2409ZM33.4558 38.933C33.4558 40.2324 34.3664 41.1821 35.7561 41.1821C36.4055 41.1821 36.8381 41.0385 37.3068 40.6714L36.8567 39.9186C36.5046 40.1699 36.135 40.3042 35.7282 40.3042C34.9797 40.295 34.4294 39.7576 34.4294 38.933C34.4294 38.1084 34.9797 37.571 35.7282 37.5618C36.135 37.5618 36.5046 37.6961 36.8567 37.9474L37.3068 37.1946C36.8381 36.8274 36.4055 36.6838 35.7561 36.6838C34.3664 36.6838 33.4558 37.6335 33.4558 38.933ZM44.4058 37.3115C44.6494 36.9351 45.0015 36.6839 45.5425 36.6839C45.7324 36.6839 46.0029 36.7198 46.2105 36.8008L45.9214 37.6787C45.7232 37.5977 45.5249 37.571 45.335 37.571C44.7217 37.571 44.4151 37.9648 44.4151 38.6735V41.0745H43.4766V36.7915L44.4058 36.7915V37.3115ZM20.4119 37.132C19.9607 36.8366 19.3392 36.6838 18.6537 36.6838C17.5614 36.6838 16.8583 37.2038 16.8583 38.0551C16.8583 38.7535 17.3817 39.1843 18.346 39.3186L18.7889 39.3812C19.3031 39.453 19.5457 39.5873 19.5457 39.8294C19.5457 40.1606 19.2029 40.3493 18.5628 40.3493C17.9134 40.3493 17.4447 40.1432 17.1288 39.9012L16.6869 40.6263C17.201 41.0026 17.8504 41.1821 18.5535 41.1821C19.7986 41.1821 20.5203 40.5996 20.5203 39.7842C20.5203 39.0314 19.9525 38.6376 19.014 38.5033L18.5721 38.4397C18.1664 38.3863 17.8411 38.3063 17.8411 38.0192C17.8411 37.7053 18.1478 37.5176 18.6619 37.5176C19.2122 37.5176 19.745 37.7238 20.0062 37.8848L20.4119 37.132ZM31.3724 37.3115C31.615 36.9351 31.9671 36.6839 32.5081 36.6839C32.698 36.6839 32.9685 36.7198 33.176 36.8008L32.887 37.6787C32.6887 37.5977 32.4905 37.571 32.3005 37.571C31.6873 37.571 31.3806 37.9648 31.3806 38.6735V41.0745H30.4432V36.7915H31.3724V37.3115ZM24.5075 36.7915H22.9744V35.4921H22.0266V36.7915H21.1521V37.6428H22.0266V39.5965C22.0266 40.5904 22.4148 41.1821 23.5236 41.1821C23.9304 41.1821 24.3991 41.057 24.6965 40.8509L24.426 40.0529C24.1462 40.214 23.8395 40.295 23.5959 40.295C23.1272 40.295 22.9744 40.0078 22.9744 39.5781V37.6428H24.5075V36.7915ZM10.4902 38.3864V41.0745H9.54241V38.691C9.54241 37.9648 9.23578 37.5618 8.59567 37.5618C7.97311 37.5618 7.54051 37.9566 7.54051 38.7002V41.0745H6.59273V38.691C6.59273 37.9648 6.27784 37.5618 5.65528 37.5618C5.01413 37.5618 4.59909 37.9566 4.59909 38.7002V41.0745H3.65234L3.65234 36.7915H4.59083V37.3197C4.94289 36.8182 5.39304 36.6839 5.85351 36.6839C6.5122 36.6839 6.98093 36.971 7.27827 37.4459C7.67576 36.8449 8.2436 36.6746 8.7939 36.6839C9.84079 36.6931 10.4902 37.3741 10.4902 38.3864Z" fill="#231F20"/>
<path d="M34.309 29.514H20.1006V4.14879H34.309V29.514Z" fill="#FF5F00"/>
<path d="M21.0023 16.8319C21.0023 11.6865 23.4275 7.10303 27.2041 4.1493C24.4424 1.98938 20.9569 0.700195 17.1688 0.700195C8.20105 0.700195 0.931641 7.92249 0.931641 16.8319C0.931641 25.7413 8.20105 32.9636 17.1688 32.9636C20.9569 32.9636 24.4424 31.6744 27.2041 29.5145C23.4275 26.5608 21.0023 21.9774 21.0023 16.8319Z" fill="#EB001B"/>
<path d="M53.4776 16.8319C53.4776 25.7413 46.2082 32.9636 37.2405 32.9636C33.4524 32.9636 29.9669 31.6744 27.2041 29.5145C30.9818 26.5608 33.407 21.9774 33.407 16.8319C33.407 11.6865 30.9818 7.10303 27.2041 4.1493C29.9669 1.98938 33.4524 0.700195 37.2405 0.700195C46.2082 0.700195 53.4776 7.92249 53.4776 16.8319Z" fill="#F79E1B"/>
</svg>
