<svg width="62" height="43" viewBox="0 0 62 43" fill="none" xmlns="http://www.w3.org/2000/svg">
<path fill-rule="evenodd" clip-rule="evenodd" d="M27.2901 21.3714L27.6558 19.0392L26.8412 19.0201H22.9512L25.6546 1.8093C25.663 1.75719 25.6902 1.70881 25.73 1.67439C25.77 1.63997 25.8209 1.62109 25.8742 1.62109H32.4333C34.611 1.62109 36.1138 2.07598 36.8982 2.97396C37.2661 3.39522 37.5004 3.83555 37.6138 4.31994C37.7327 4.82832 37.7346 5.43562 37.6187 6.17646L37.6102 6.23035V6.7051L37.9781 6.91435C38.2878 7.07935 38.534 7.26815 38.7228 7.48429C39.0374 7.84458 39.2409 8.30242 39.3269 8.84502C39.4158 9.40316 39.3864 10.0675 39.2409 10.8195C39.073 11.6845 38.8017 12.4379 38.4353 13.0543C38.0984 13.6222 37.669 14.0934 37.1591 14.4584C36.6724 14.8054 36.0942 15.0687 35.4404 15.2372C34.8067 15.4028 34.0843 15.4864 33.292 15.4864H32.7816C32.4167 15.4864 32.0622 15.6184 31.7838 15.855C31.5047 16.0965 31.3202 16.4265 31.2636 16.7874L31.225 16.9974L30.5788 21.1083L30.5496 21.2591C30.5418 21.3069 30.5285 21.3307 30.5089 21.3469C30.4915 21.3616 30.4664 21.3714 30.4419 21.3714H27.2901Z" fill="#28356A"/>
<path fill-rule="evenodd" clip-rule="evenodd" d="M38.3266 6.28516C38.3072 6.41083 38.2847 6.53925 38.2596 6.67121C37.3947 11.1304 34.4352 12.6709 30.6557 12.6709H28.7312C28.269 12.6709 27.8794 13.0078 27.8075 13.4656L26.5432 21.5181C26.4963 21.8188 26.7271 22.0896 27.0291 22.0896H30.4424C30.8465 22.0896 31.1898 21.7948 31.2535 21.3946L31.287 21.2205L31.9296 17.1258L31.971 16.9012C32.0338 16.4996 32.378 16.2046 32.7821 16.2046H33.2925C36.5994 16.2046 39.1883 14.8566 39.9449 10.9556C40.2609 9.326 40.0973 7.96527 39.2609 7.0083C39.0079 6.71979 38.6939 6.48025 38.3266 6.28516Z" fill="#298FC2"/>
<path fill-rule="evenodd" clip-rule="evenodd" d="M37.422 5.92304C37.2898 5.8843 37.1535 5.84929 37.0136 5.81763C36.873 5.78675 36.729 5.75942 36.5807 5.73542C36.0619 5.65125 35.4932 5.61133 34.8843 5.61133H29.7432C29.6165 5.61133 29.4962 5.64004 29.3887 5.69196C29.1515 5.80642 28.9754 6.0318 28.9327 6.30772L27.839 13.263L27.8076 13.4658C27.8795 13.0079 28.2691 12.671 28.7314 12.671H30.6558C34.4353 12.671 37.3948 11.1298 38.2597 6.67136C38.2856 6.53939 38.3073 6.41097 38.3267 6.2853C38.1079 6.16868 37.8709 6.06897 37.6157 5.98401C37.5526 5.96297 37.4876 5.94271 37.422 5.92304Z" fill="#22284F"/>
<path fill-rule="evenodd" clip-rule="evenodd" d="M28.9328 6.30741C28.9755 6.03149 29.1516 5.80611 29.3888 5.69243C29.4971 5.64032 29.6166 5.61161 29.7433 5.61161H34.8844C35.4934 5.61161 36.062 5.65172 36.5808 5.7359C36.7291 5.75969 36.8731 5.78723 37.0137 5.8181C37.1536 5.84957 37.2899 5.88477 37.4221 5.92332C37.4877 5.94299 37.5528 5.96344 37.6164 5.9837C37.8716 6.06866 38.1088 6.16915 38.3276 6.28499C38.585 4.63713 38.3255 3.51515 37.4382 2.49917C36.4598 1.38054 34.6942 0.901855 32.4348 0.901855H25.8755C25.414 0.901855 25.0203 1.23874 24.949 1.69737L22.217 19.0852C22.1631 19.4291 22.4273 19.7395 22.7728 19.7395H26.8223L28.9328 6.30741Z" fill="#28356A"/>
<path fill-rule="evenodd" clip-rule="evenodd" d="M7.96435 26.105H3.18194C2.85463 26.105 2.5763 26.3437 2.52518 26.6682L0.59094 38.9811C0.552549 39.2242 0.739999 39.443 0.985427 39.443H3.26851C3.59581 39.443 3.87415 39.2045 3.92527 38.8794L4.44688 35.5583C4.49722 35.2332 4.77614 34.9945 5.10286 34.9945H6.61675C9.76696 34.9945 11.585 33.4638 12.06 30.4308C12.2739 29.1037 12.069 28.0612 11.4501 27.331C10.7704 26.5292 9.56482 26.105 7.96435 26.105ZM8.5158 30.6021C8.25431 32.3251 6.94315 32.3251 5.67546 32.3251H4.95367L5.46 29.1072C5.49017 28.9127 5.65783 28.7695 5.85371 28.7695H6.18453C7.04813 28.7695 7.86277 28.7695 8.2837 29.2638C8.5348 29.5586 8.61159 29.9967 8.5158 30.6021Z" fill="#28356A"/>
<path fill-rule="evenodd" clip-rule="evenodd" d="M22.3826 30.4536H20.0925C19.8974 30.4536 19.7288 30.5968 19.6988 30.7913L19.5973 31.4344L19.4373 31.2014C18.9415 30.4788 17.8359 30.2373 16.7325 30.2373C14.2016 30.2373 12.0402 32.1619 11.6193 34.8615C11.4005 36.2081 11.7115 37.4958 12.4725 38.3938C13.1704 39.2194 14.1689 39.5636 15.3569 39.5636C17.3961 39.5636 18.5267 38.2471 18.5267 38.2471L18.4246 38.8861C18.3863 39.1303 18.5737 39.3494 18.8178 39.3494H20.8805C21.2086 39.3494 21.4855 39.1107 21.5372 38.7856L22.775 30.9156C22.8141 30.6733 22.6273 30.4536 22.3826 30.4536ZM19.1903 34.929C18.9693 36.2425 17.931 37.1244 16.6065 37.1244C15.9415 37.1244 15.4101 36.9102 15.0687 36.5045C14.7303 36.1015 14.6018 35.5278 14.7093 34.8889C14.9158 33.5865 15.9715 32.6758 17.2758 32.6758C17.9261 32.6758 18.4548 32.8929 18.803 33.302C19.1519 33.7156 19.2904 34.2928 19.1903 34.929Z" fill="#28356A"/>
<path fill-rule="evenodd" clip-rule="evenodd" d="M34.4026 30.6509H32.1011C31.8815 30.6509 31.6753 30.7604 31.5509 30.9437L28.3768 35.6379L27.0314 31.1268C26.9467 30.8446 26.6874 30.6509 26.3936 30.6509H24.1322C23.8572 30.6509 23.6665 30.9205 23.7538 31.1803L26.2888 38.6493L23.9056 42.0272C23.7182 42.2933 23.907 42.6591 24.2308 42.6591H26.5293C26.7475 42.6591 26.9516 42.5523 27.0754 42.3727L34.7297 31.2792C34.9131 31.0139 34.7248 30.6509 34.4026 30.6509Z" fill="#28356A"/>
<path fill-rule="evenodd" clip-rule="evenodd" d="M42.0755 26.105H37.2925C36.966 26.105 36.6876 26.3437 36.6365 26.6682L34.7023 38.9811C34.6639 39.2242 34.8513 39.443 35.0954 39.443H37.5499C37.7777 39.443 37.9727 39.2761 38.0084 39.0485L38.5574 35.5583C38.6078 35.2332 38.8869 34.9945 39.2134 34.9945H40.7267C43.8775 34.9945 45.695 33.4638 46.1706 30.4308C46.3853 29.1037 46.179 28.0612 45.5601 27.331C44.881 26.5292 43.6762 26.105 42.0755 26.105ZM42.6273 30.6021C42.3664 32.3251 41.0553 32.3251 39.7868 32.3251H39.066L39.5729 29.1072C39.6029 28.9127 39.7694 28.7695 39.9658 28.7695H40.2966C41.1595 28.7695 41.9749 28.7695 42.3958 29.2638C42.6469 29.5586 42.7231 29.9967 42.6273 30.6021Z" fill="#298FC2"/>
<path fill-rule="evenodd" clip-rule="evenodd" d="M56.4889 30.4536H54.2002C54.0037 30.4536 53.8366 30.5968 53.8072 30.7913L53.7058 31.4344L53.545 31.2014C53.0492 30.4788 51.9443 30.2373 50.8408 30.2373C48.3101 30.2373 46.1494 32.1619 45.7285 34.8615C45.5103 36.2081 45.82 37.4958 46.5807 38.3938C47.2802 39.2194 48.2772 39.5636 49.4653 39.5636C51.5044 39.5636 52.6351 38.2471 52.6351 38.2471L52.5331 38.8861C52.4947 39.1303 52.682 39.3494 52.9276 39.3494H54.9897C55.3162 39.3494 55.5946 39.1107 55.6457 38.7856L56.884 30.9156C56.9218 30.6733 56.7344 30.4536 56.4889 30.4536ZM53.2967 34.929C53.0771 36.2425 52.0372 37.1244 50.7127 37.1244C50.0491 37.1244 49.5163 36.9102 49.1749 36.5045C48.8367 36.1015 48.7093 35.5278 48.8155 34.8889C49.0233 33.5865 50.0777 32.6758 51.382 32.6758C52.0323 32.6758 52.561 32.8929 52.9092 33.302C53.2595 33.7156 53.3979 34.2928 53.2967 34.929Z" fill="#298FC2"/>
<path fill-rule="evenodd" clip-rule="evenodd" d="M58.9991 26.4434L57.0363 38.9817C56.9979 39.2247 57.1851 39.4436 57.4292 39.4436H59.4026C59.7307 39.4436 60.0088 39.2051 60.0592 38.88L61.9948 26.5677C62.0334 26.3247 61.8459 26.105 61.6018 26.105H59.3922C59.1971 26.1056 59.0293 26.2489 58.9991 26.4434Z" fill="#298FC2"/>
</svg>
