<svg width="70" height="22" viewBox="0 0 70 22" fill="none" xmlns="http://www.w3.org/2000/svg">
<path d="M30.2956 20.7781H24.7031L28.2011 0.477051H33.7933L30.2956 20.7781Z" fill="#15195A"/>
<path d="M50.5689 0.97367C49.4658 0.562907 47.7163 0.109375 45.5529 0.109375C40.0301 0.109375 36.141 2.87363 36.1172 6.82567C36.0713 9.74148 38.9017 11.361 41.0185 12.3332C43.1822 13.3267 43.9177 13.9751 43.9177 14.8607C43.8957 16.2207 42.1693 16.8476 40.5592 16.8476C38.3264 16.8476 37.1301 16.5244 35.312 15.7677L34.5756 15.4434L33.793 20.0005C35.1046 20.5614 37.5212 21.0591 40.0301 21.0809C45.8982 21.0809 49.7184 18.3595 49.7637 14.1479C49.786 11.8369 48.2915 10.0661 45.0694 8.61914C43.1134 7.69026 41.9155 7.06392 41.9155 6.11351C41.9384 5.2495 42.9287 4.36454 45.1367 4.36454C46.9548 4.3212 48.2906 4.73139 49.3025 5.14186L49.8084 5.35743L50.5689 0.97367Z" fill="#15195A"/>
<path fill-rule="evenodd" clip-rule="evenodd" d="M60.5796 0.477051H64.9054L69.4171 20.7778H64.239C64.239 20.7778 63.7322 18.4453 63.5717 17.7325H56.3914C56.1837 18.2722 55.2176 20.7778 55.2176 20.7778H49.3496L57.6565 2.16144C58.2321 0.843895 59.2456 0.477051 60.5796 0.477051ZM60.235 7.90599C60.235 7.90599 58.4628 12.4198 58.0022 13.586H62.6507C62.4207 12.5711 61.3616 7.71166 61.3616 7.71166L60.9708 5.9624C60.8062 6.41285 60.5682 7.03214 60.4077 7.44984C60.2988 7.73299 60.2256 7.9235 60.235 7.90599Z" fill="#15195A"/>
<path fill-rule="evenodd" clip-rule="evenodd" d="M0.470957 0.477051H9.46874C10.6883 0.519821 11.678 0.886952 12 2.18354L13.9552 11.51C13.9555 11.511 13.9558 11.5119 13.9561 11.5128L14.5546 14.3204L20.0315 0.477051H25.9451L17.1547 20.7565H11.2408L6.25618 3.11681C4.53633 2.17303 2.57348 1.41399 0.378906 0.887239L0.470957 0.477051Z" fill="#15195A"/>
</svg>
