<svg width="1920" height="450" viewBox="0 0 1920 450" fill="none" xmlns="http://www.w3.org/2000/svg">
<line x1="3.8735e-05" y1="74.5" x2="1920" y2="74.5" stroke="black" stroke-opacity="0.1"/>
<line x1="3.8735e-05" y1="149.5" x2="1920" y2="149.5" stroke="black" stroke-opacity="0.1"/>
<line x1="3.8735e-05" y1="224.5" x2="1920" y2="224.5" stroke="black" stroke-opacity="0.1"/>
<line x1="3.8735e-05" y1="299.5" x2="1920" y2="299.5" stroke="black" stroke-opacity="0.1"/>
<line x1="3.8735e-05" y1="374.5" x2="1920" y2="374.5" stroke="black" stroke-opacity="0.1"/>
<line x1="975.5" y1="1.10986e-08" x2="975.5" y2="450" stroke="black" stroke-opacity="0.1"/>
<line x1="900.5" y1="1.10986e-08" x2="900.5" y2="450" stroke="black" stroke-opacity="0.1"/>
<line x1="825.5" y1="1.10986e-08" x2="825.5" y2="450" stroke="black" stroke-opacity="0.1"/>
<line x1="750.5" y1="1.10986e-08" x2="750.5" y2="450" stroke="black" stroke-opacity="0.1"/>
<line x1="675.5" y1="1.10986e-08" x2="675.5" y2="450" stroke="black" stroke-opacity="0.1"/>
<line x1="600.5" y1="1.10986e-08" x2="600.5" y2="450" stroke="black" stroke-opacity="0.1"/>
<line x1="525.5" y1="1.10986e-08" x2="525.5" y2="450" stroke="black" stroke-opacity="0.1"/>
<line x1="450.5" y1="1.10986e-08" x2="450.5" y2="450" stroke="black" stroke-opacity="0.1"/>
<line x1="375.5" y1="1.10986e-08" x2="375.5" y2="450" stroke="black" stroke-opacity="0.1"/>
<line x1="300.5" y1="1.10986e-08" x2="300.5" y2="450" stroke="black" stroke-opacity="0.1"/>
<line x1="225.5" y1="1.10986e-08" x2="225.5" y2="450" stroke="black" stroke-opacity="0.1"/>
<line x1="150.5" y1="1.10986e-08" x2="150.5" y2="450" stroke="black" stroke-opacity="0.1"/>
<line x1="75.5" y1="1.10986e-08" x2="75.5" y2="450" stroke="black" stroke-opacity="0.1"/>
<line x1="0.500039" y1="1.10986e-08" x2="0.5" y2="450" stroke="black" stroke-opacity="0.1"/>
<line x1="1875.5" y1="1.10986e-08" x2="1875.5" y2="450" stroke="black" stroke-opacity="0.1"/>
<line x1="1800.5" y1="1.10986e-08" x2="1800.5" y2="450" stroke="black" stroke-opacity="0.1"/>
<line x1="1725.5" y1="1.10986e-08" x2="1725.5" y2="450" stroke="black" stroke-opacity="0.1"/>
<line x1="1650.5" y1="1.10986e-08" x2="1650.5" y2="450" stroke="black" stroke-opacity="0.1"/>
<line x1="1575.5" y1="1.10986e-08" x2="1575.5" y2="450" stroke="black" stroke-opacity="0.1"/>
<line x1="1500.5" y1="1.10986e-08" x2="1500.5" y2="450" stroke="black" stroke-opacity="0.1"/>
<line x1="1425.5" y1="1.10986e-08" x2="1425.5" y2="450" stroke="black" stroke-opacity="0.1"/>
<line x1="1350.5" y1="1.10986e-08" x2="1350.5" y2="450" stroke="black" stroke-opacity="0.1"/>
<line x1="1275.5" y1="1.10986e-08" x2="1275.5" y2="450" stroke="black" stroke-opacity="0.1"/>
<line x1="1200.5" y1="1.10986e-08" x2="1200.5" y2="450" stroke="black" stroke-opacity="0.1"/>
<line x1="1125.5" y1="1.10986e-08" x2="1125.5" y2="450" stroke="black" stroke-opacity="0.1"/>
<line x1="1050.5" y1="1.10986e-08" x2="1050.5" y2="450" stroke="black" stroke-opacity="0.1"/>
</svg>
