<svg width="167" height="37" viewBox="0 0 167 37" fill="none" xmlns="http://www.w3.org/2000/svg">
<path d="M66.5502 30.6362L66.8011 30.3104L69.2651 27.1101L69.6343 26.6305L70.0355 27.0836C72.7929 30.1968 76.178 31.7409 80.2212 31.7409C82.8794 31.7409 84.7259 31.1753 85.8674 30.1451C87.0509 29.0428 87.6161 27.8 87.6161 26.3991C87.6161 25.3272 87.2866 24.4511 86.6395 23.738C85.9626 22.992 85.0773 22.4069 83.9678 21.9906L83.9596 21.9875L83.9515 21.9841C82.8373 21.5207 81.5696 21.1044 80.1464 20.7366L80.1436 20.7359C78.7284 20.3615 77.3133 19.953 75.8983 19.5106L75.8879 19.5073L75.888 19.5072C74.455 19.0247 73.1369 18.4545 71.9351 17.7954L71.9297 17.7925C70.7121 17.1051 69.7138 16.1297 68.935 14.8781C68.1405 13.6012 67.7532 12.101 67.7532 10.3977C67.7532 7.46862 68.912 5.07286 71.2093 3.25121C73.4927 1.40655 76.3583 0.5 79.7686 0.5C84.8781 0.5 88.9915 2.11585 92.0513 5.38242L92.3493 5.70067L92.0746 6.03928L89.5603 9.13797L89.1924 9.59139L88.801 9.15809C86.4589 6.56517 83.3644 5.25907 79.4669 5.25907C77.5421 5.25907 75.9975 5.74372 74.7954 6.67783L74.7939 6.67901C73.6413 7.56762 73.0778 8.70897 73.0778 10.1437C73.0778 11.1672 73.487 12.0081 74.3455 12.6972C75.2882 13.4265 76.446 13.9747 77.8306 14.3327C77.8311 14.3328 77.8316 14.3329 77.832 14.333L77.7069 14.8171C79.182 15.1896 80.7744 15.6638 82.4841 16.2395L66.5502 30.6362ZM66.5502 30.6362L66.8215 30.9452C70.0812 34.6586 74.5175 36.5 80.0704 36.5C84.325 36.5 87.5756 35.5215 89.7177 33.4669C91.8604 31.4437 92.9406 28.9595 92.9406 26.0435C92.9406 23.9914 92.414 22.2097 91.3393 20.7244C90.3178 19.2667 89.0233 18.2061 87.4587 17.558C85.9999 16.9072 84.3926 16.3093 82.6381 15.7638L66.5502 30.6362ZM20.656 35.8904H20.9947L21.1203 35.5758L34.6472 1.69337L34.9208 1.00798H34.1828H29.4057H29.0629L28.9393 1.32765L18.0914 29.3814L7.24348 1.32765L7.11987 1.00798H6.77713H2H1.26303L1.5354 1.69277L15.0119 35.5752L15.1373 35.8904H15.4765H20.656ZM61.5484 35.8904H62.0484V35.3904V31.6313V31.1313H61.5484H44.2473V20.4478H61.1964H61.6964V19.9478V16.1887V15.6887H61.1964H44.2473V5.76705H61.5484H62.0484V5.26705V1.50798V1.00798H61.5484H39.5736H39.0736V1.50798V35.3904V35.8904H39.5736H61.5484ZM127.436 35.8904H127.936V35.3904V1.50798V1.00798H127.436H123.263H122.763V1.50798V26.4403L104.357 1.21328L104.207 1.00798H103.953H99.6786H99.1786V1.50798V35.3904V35.8904H99.6786H103.852H104.352V35.3904V9.90926L123.008 35.6836L123.158 35.8904H123.413H127.436ZM165 35.8904H165.738L165.464 35.205L151.938 1.3226L151.812 1.00798H151.473H146.294H145.955L145.829 1.32319L132.353 35.2056L132.08 35.8904H132.817H137.594H137.935L138.059 35.574L140.901 28.3723H156.916L159.758 35.574L159.883 35.8904H160.223H165ZM142.501 23.6132L148.907 7.2522L155.268 23.6132H142.501Z" fill="#042131" stroke="#042131"/>
</svg>
