<svg width="31" height="36" viewBox="0 0 31 36" fill="none" xmlns="http://www.w3.org/2000/svg">
<path d="M6.16797 0H28.081L30.168 3H8.25493L6.16797 0Z" fill="#042131"/>
<path d="M0.167969 9H27.5593L30.168 12H2.77666L0.167969 9Z" fill="#042131"/>
<path d="M0.167969 18H27.5593L30.168 21H2.77666L0.167969 18Z" fill="#042131"/>
<circle cx="1.66797" cy="1.5" r="1.5" fill="#042131"/>
<path d="M8.84 31.288V35.11H7.15V31.47C7.15 30.6553 6.85967 30.248 6.279 30.248C5.967 30.248 5.71567 30.352 5.525 30.56C5.33433 30.768 5.239 31.0713 5.239 31.47V35.11H3.536V31.47C3.536 30.6553 3.25 30.248 2.678 30.248C2.366 30.248 2.11467 30.352 1.924 30.56C1.73333 30.768 1.638 31.0713 1.638 31.47V35.11H0V29.13H1.638V30.014C1.81133 29.6847 2.03667 29.4333 2.314 29.26C2.6 29.0867 2.94233 29 3.341 29C4.251 29 4.82733 29.338 5.07 30.014C5.50333 29.338 6.12733 29 6.942 29C7.60933 29 8.09033 29.1993 8.385 29.598C8.68833 29.9967 8.84 30.56 8.84 31.288Z" fill="#042131"/>
<path d="M13.333 35.24C12.6744 35.24 12.1024 35.1143 11.617 34.863C11.1317 34.603 10.7547 34.239 10.486 33.771C10.226 33.303 10.096 32.7527 10.096 32.12C10.096 31.1667 10.3864 30.4083 10.967 29.845C11.5477 29.2817 12.3364 29 13.333 29C14.321 29 15.088 29.2687 15.634 29.806C16.18 30.3347 16.453 31.08 16.453 32.042C16.453 32.1287 16.4487 32.211 16.44 32.289C16.4314 32.367 16.427 32.432 16.427 32.484H11.812C11.864 32.952 12.02 33.316 12.28 33.576C12.5487 33.8273 12.8997 33.953 13.333 33.953C14.0697 33.953 14.607 33.6627 14.945 33.082L16.427 33.55C15.803 34.6767 14.7717 35.24 13.333 35.24ZM13.307 30.196C12.4924 30.196 12.007 30.6163 11.851 31.457H14.633C14.5984 31.0757 14.4597 30.7723 14.217 30.547C13.983 30.313 13.6797 30.196 13.307 30.196Z" fill="#042131"/>
<path d="M21.584 31.47C21.584 31.08 21.506 30.781 21.35 30.573C21.2026 30.3563 20.9513 30.248 20.596 30.248C20.2493 30.248 19.9633 30.3563 19.738 30.573C19.5126 30.7897 19.4 31.0887 19.4 31.47V35.11H17.71V29.13H19.4V30.04C19.7726 29.3467 20.3793 29 21.22 29C21.9306 29 22.4593 29.2037 22.806 29.611C23.1526 30.0097 23.326 30.5687 23.326 31.288V35.11H21.584V31.47Z" fill="#042131"/>
<path d="M26.7394 32.77C26.7394 33.1513 26.813 33.4503 26.9604 33.667C27.1164 33.8837 27.3677 33.992 27.7144 33.992C28.0697 33.992 28.3557 33.8837 28.5724 33.667C28.7977 33.4417 28.9104 33.1427 28.9104 32.77V29.13H30.6004V35.11H28.9104V34.2C28.5377 34.8933 27.931 35.24 27.0904 35.24C26.3884 35.24 25.8597 35.0363 25.5044 34.629C25.1577 34.2217 24.9844 33.6627 24.9844 32.952V29.13H26.7394V32.77Z" fill="#042131"/>
</svg>
